<svg width="10" height="10" viewBox="0 0 10 10" fill="none" xmlns="http://www.w3.org/2000/svg">
<path d="M5.58337 7.83325H4.58337V7.62492L4.91671 7.24992C5.00004 7.12492 5.08337 7.08325 5.12504 7.04159C5.16671 6.99992 5.16671 6.95825 5.20837 6.91659C5.20837 6.87492 5.25004 6.83325 5.25004 6.79159C5.25004 6.74992 5.25004 6.70825 5.20837 6.66659C5.16671 6.66659 5.12504 6.66659 5.04171 6.66659C5.00004 6.66659 4.91671 6.66659 4.87504 6.70825C4.83337 6.74992 4.75004 6.74992 4.70837 6.83325L4.58337 6.62492C4.66671 6.58325 4.70837 6.54159 4.75004 6.49992C4.79171 6.45825 4.83337 6.45825 4.91671 6.45825C5.00004 6.45825 5.04171 6.45825 5.08337 6.45825C5.16671 6.45825 5.25004 6.45825 5.33337 6.49992C5.41671 6.54159 5.45837 6.58325 5.50004 6.62492C5.54171 6.66659 5.54171 6.74992 5.54171 6.83325C5.54171 6.91659 5.54171 6.95825 5.50004 6.99992C5.45837 7.04159 5.41671 7.08325 5.37504 7.12492C5.33337 7.16659 5.25004 7.24992 5.12504 7.37492L4.95837 7.54159H5.58337V7.83325Z" fill="#EE220C"/>
<path d="M6.70841 7.54163H6.54175V7.83329H6.25008V7.54163H5.66675V7.33329L6.29175 6.41663H6.58341V7.29163H6.75008V7.54163H6.70841ZM6.25008 7.29163V7.08329C6.25008 7.04163 6.25008 6.99996 6.25008 6.91663C6.25008 6.83329 6.25008 6.79163 6.25008 6.79163C6.20841 6.83329 6.20841 6.87496 6.16675 6.95829L5.91675 7.33329H6.25008V7.29163Z" fill="#EE220C"/>
<path d="M7.87508 7.83329H7.58341V7.20829C7.58341 7.04163 7.54175 6.95829 7.41675 6.95829C7.33341 6.95829 7.29175 6.99996 7.25008 7.04163C7.20841 7.08329 7.20841 7.16663 7.20841 7.29163V7.79163H6.91675V6.29163H7.20841V6.58329C7.20841 6.62496 7.20841 6.66663 7.20841 6.74996V6.83329C7.29175 6.70829 7.37508 6.66663 7.50008 6.66663C7.62508 6.66663 7.70841 6.70829 7.79175 6.74996C7.87508 6.79163 7.87508 6.91663 7.87508 7.04163V7.83329Z" fill="#EE220C"/>
<path d="M8.79175 6.75C8.83341 6.75 8.87508 6.75 8.87508 6.75L8.83341 7.04167C8.79175 7.04167 8.79175 7.04167 8.75008 7.04167C8.66675 7.04167 8.58341 7.08333 8.54175 7.125C8.50008 7.16667 8.45841 7.25 8.45841 7.33333V7.875H8.16675V6.79167H8.37508L8.41675 6.95833C8.45841 6.91667 8.50008 6.83333 8.54175 6.83333C8.66675 6.75 8.70841 6.75 8.79175 6.75Z" fill="#EE220C"/>
<path d="M9.83337 7.49992C9.83337 7.62492 9.79171 7.70825 9.70837 7.74992C9.62504 7.79159 9.50004 7.83325 9.37504 7.83325C9.29171 7.83325 9.25004 7.83325 9.16671 7.83325C9.12504 7.83325 9.04171 7.79159 9.00004 7.79159V7.54159C9.04171 7.58325 9.12504 7.58325 9.16671 7.62492C9.25004 7.62492 9.29171 7.66659 9.33337 7.66659C9.45837 7.66659 9.50004 7.62492 9.50004 7.58325C9.50004 7.54159 9.50004 7.54159 9.45837 7.54159C9.45837 7.54159 9.41671 7.49992 9.37504 7.49992C9.33337 7.49992 9.29171 7.45825 9.25004 7.41658C9.16671 7.37492 9.12504 7.33325 9.08337 7.33325C9.04171 7.29159 9.00004 7.24992 9.00004 7.24992C9.00004 7.20825 8.95837 7.16659 8.95837 7.12492C8.95837 7.04159 9.00004 6.95825 9.08337 6.91659C9.16671 6.87492 9.25004 6.83325 9.41671 6.83325C9.54171 6.83325 9.66671 6.87492 9.79171 6.91659L9.70837 7.12492C9.66671 7.08325 9.62504 7.08325 9.54171 7.08325C9.50004 7.08325 9.45837 7.04159 9.41671 7.04159C9.33337 7.04159 9.29171 7.08325 9.29171 7.12492C9.29171 7.16659 9.29171 7.16659 9.33337 7.20825C9.37504 7.20825 9.41671 7.24992 9.50004 7.29159C9.58337 7.33325 9.62504 7.37492 9.66671 7.37492C9.70838 7.41659 9.75004 7.45825 9.75004 7.45825C9.75004 7.45825 9.83337 7.45825 9.83337 7.49992Z" fill="#EE220C"/>
<path d="M4.83337 9.08337C2.54171 9.08337 0.708374 7.25004 0.708374 4.95837C0.708374 2.66671 2.54171 0.833374 4.83337 0.833374C7.12504 0.833374 8.95837 2.66671 8.95837 4.95837C8.95837 5.20837 8.79171 5.37504 8.54171 5.37504C8.29171 5.37504 8.12504 5.20837 8.12504 4.95837C8.12504 3.12504 6.66671 1.66671 4.83337 1.66671C3.00004 1.66671 1.54171 3.12504 1.54171 4.95837C1.54171 6.79171 3.00004 8.25004 4.83337 8.25004C5.08337 8.25004 5.25004 8.41671 5.25004 8.66671C5.25004 8.91671 5.04171 9.08337 4.83337 9.08337Z" fill="#EE220C"/>
<path d="M6.45829 5.375H4.83329C4.58329 5.375 4.41663 5.20833 4.41663 4.95833V3.29167C4.41663 3.04167 4.58329 2.875 4.83329 2.875C5.08329 2.875 5.24996 3.04167 5.24996 3.29167V4.54167H6.45829C6.70829 4.54167 6.87496 4.70833 6.87496 4.95833C6.87496 5.20833 6.66663 5.375 6.45829 5.375Z" fill="#EE220C"/>
</svg>
