<svg width="12" height="12" viewBox="0 0 12 12" fill="none" xmlns="http://www.w3.org/2000/svg">
<path d="M5.74997 9.85003C4.69997 9.85003 3.89997 9.60003 3.39997 9.05002C2.89997 8.50003 2.89997 7.85002 2.94997 7.70002V5.35002C2.94997 5.10002 3.14997 4.90002 3.39997 4.90002H9.59997C9.84997 4.90002 10.05 5.10002 10.05 5.35002V6.75002C10.05 7.05002 9.84997 7.80002 8.89997 8.00002C8.84997 8.45002 8.64997 8.80003 8.34997 9.10003C7.49997 9.90003 5.99997 9.85003 5.94997 9.85003C5.84997 9.85003 5.79997 9.85003 5.74997 9.85003ZM3.84997 5.80002V7.70002V7.75002C3.84997 7.75002 3.79997 8.15002 4.09997 8.45002C4.39997 8.80002 5.04997 8.95002 5.94997 8.95002C6.29997 8.95002 7.24997 8.90002 7.69997 8.45002C7.89997 8.25002 7.99997 8.00002 7.99997 7.70002V5.80002H3.84997ZM8.89997 5.80002V7.05002C9.14997 6.95002 9.14997 6.75002 9.14997 6.75002V5.80002H8.89997Z" fill="white"/>
<path d="M3.84998 4.05002C3.84998 4.05002 3.84998 3.50002 4.59998 3.50002C5.34998 3.50002 8.04997 3.50002 8.04997 3.50002C8.04997 3.50002 8.69997 3.50002 8.69997 2.95002C8.69997 2.40002 8.09998 2.40002 8.09998 2.40002H5.49998C5.49998 2.40002 4.79998 2.45002 4.79998 1.95002C4.79998 1.40002 5.39998 1.40002 5.39998 1.40002H6.49998C6.49998 1.40002 7.04997 1.40002 7.69997 1.40002" fill="white"/>
<path d="M3.84997 4.5C3.59997 4.5 3.39997 4.3 3.44997 4.05C3.44997 3.65 3.79997 3.1 4.64997 3.05C5.39997 3.05 7.99997 3.05 8.09997 3.05C8.19997 3.05 8.24997 3 8.29997 3C8.29997 2.9 8.29997 2.85 8.14997 2.85H5.54997C5.49997 2.85 4.99997 2.9 4.64997 2.6C4.49997 2.45 4.39997 2.2 4.39997 1.95C4.39997 1.7 4.49997 1.45 4.64997 1.3C4.94997 1 5.34997 1 5.44997 1H6.49997C6.49997 1 7.04997 1 7.69997 1C7.94997 1 8.14997 1.2 8.14997 1.45C8.14997 1.7 7.94997 1.9 7.69997 1.9C7.09997 1.9 6.49997 1.9 6.49997 1.9H5.44997C5.39997 1.9 5.29997 1.95 5.29997 1.95C5.34997 1.95 5.44997 2 5.54997 2H8.14997C8.19997 2 8.59997 2 8.89997 2.3C9.04997 2.4 9.19997 2.65 9.19997 3C9.19997 3.25 9.09997 3.5 8.94997 3.65C8.64997 3.95 8.19997 3.95 8.14997 3.95C8.09997 3.95 5.44997 3.95 4.74997 3.95C4.44997 3.95 4.39997 4.1 4.39997 4.1C4.29997 4.3 4.09997 4.5 3.84997 4.5Z" fill="white"/>
<path d="M9.59995 9.95005H2.39995C2.14995 9.95005 1.94995 9.75005 1.94995 9.50005C1.94995 9.25005 2.14995 9.05005 2.39995 9.05005H9.54995C9.79995 9.05005 9.99995 9.25005 9.99995 9.50005C9.99995 9.75005 9.79995 9.95005 9.59995 9.95005Z" fill="white"/>
<path d="M8.14994 11H3.84994C3.69994 11 3.59994 10.95 3.49994 10.85L2.94994 10.15C2.79994 9.94999 2.84994 9.64999 2.99994 9.49999C3.19994 9.34999 3.44994 9.39999 3.59994 9.54999L4.04994 10.1H7.89994L8.34995 9.54999C8.49995 9.34999 8.79994 9.34999 8.94994 9.49999C9.14994 9.64999 9.14994 9.94999 8.99995 10.1L8.39994 10.8C8.39994 10.95 8.24994 11 8.14994 11Z" fill="white"/>
</svg>
