<svg width="12" height="12" viewBox="0 0 12 12" fill="none" xmlns="http://www.w3.org/2000/svg">
<g clip-path="url(#clip0)">
<path d="M11.45 8.69995C11.15 8.69995 10.95 8.49995 10.95 8.19995V6.29995C10.95 5.94995 10.7 5.69995 10.45 5.69995H1.59998C1.34998 5.69995 1.09998 5.94995 1.09998 6.29995V8.19995C1.09998 8.49995 0.899976 8.69995 0.599976 8.69995C0.299976 8.69995 0.0999756 8.49995 0.0999756 8.19995V6.29995C0.0999756 5.39995 0.749976 4.69995 1.59998 4.69995H10.45C11.3 4.69995 11.95 5.39995 11.95 6.29995V8.19995C11.95 8.49995 11.75 8.69995 11.45 8.69995Z" fill="#EE220C"/>
<path d="M10.5 5.70002C10.2 5.70002 10 5.50002 10 5.20002V3.25002C10 2.90002 9.8 2.65002 9.7 2.65002H2.3C2.2 2.65002 2 2.90002 2 3.25002V5.20002C2 5.50002 1.8 5.70002 1.5 5.70002C1.2 5.70002 1 5.50002 1 5.20002V3.25002C1 2.35002 1.55 1.65002 2.3 1.65002H9.7C10.45 1.65002 11 2.35002 11 3.25002V5.20002C11 5.50002 10.8 5.70002 10.5 5.70002Z" fill="#EE220C"/>
<path d="M5.40005 5.49998C5.10005 5.49998 4.90005 5.29998 4.90005 4.99998V3.94998C4.90005 3.89998 4.90005 3.89998 4.90005 3.84998H3.05005C3.05005 3.89998 3.05005 3.89998 3.05005 3.94998V4.99998C3.05005 5.29998 2.85005 5.49998 2.55005 5.49998C2.25005 5.49998 2.05005 5.29998 2.05005 4.99998V3.94998C2.05005 3.29998 2.40005 2.84998 2.85005 2.84998H5.10005C5.55005 2.84998 5.90005 3.29998 5.90005 3.94998V4.99998C5.90005 5.29998 5.70005 5.49998 5.40005 5.49998Z" fill="#EE220C"/>
<path d="M9.50003 5.49998C9.20003 5.49998 9.00003 5.29998 9.00003 4.99998V3.94998C9.00003 3.89998 9.00003 3.89998 9.00003 3.84998H7.15002C7.15002 3.89998 7.15002 3.89998 7.15002 3.94998V4.99998C7.15002 5.29998 6.95002 5.49998 6.65002 5.49998C6.35002 5.49998 6.15002 5.29998 6.15002 4.99998V3.94998C6.15002 3.29998 6.50002 2.84998 6.95002 2.84998H9.20002C9.65002 2.84998 10 3.29998 10 3.94998V4.99998C10 5.29998 9.80003 5.49998 9.50003 5.49998Z" fill="#EE220C"/>
<path d="M11.4 8.69995H0.599976C0.299976 8.69995 0.0999756 8.49995 0.0999756 8.19995C0.0999756 7.89995 0.299976 7.69995 0.599976 7.69995H11.4C11.7 7.69995 11.9 7.89995 11.9 8.19995C11.9 8.49995 11.7 8.69995 11.4 8.69995Z" fill="#EE220C"/>
<path d="M11.45 11H9.94998C9.69998 11 9.49998 10.85 9.44998 10.6C9.44998 10.5 9.34997 10.15 8.94998 10.15H3.09998C2.69998 10.15 2.59998 10.55 2.59998 10.6C2.54998 10.85 2.34998 11 2.09998 11H0.599976C0.349976 11 0.0999756 10.8 0.0999756 10.5V8.19995C0.0999756 7.89995 0.299976 7.69995 0.599976 7.69995C0.899976 7.69995 1.09998 7.89995 1.09998 8.19995V9.99995H1.74998C1.94998 9.59995 2.34998 9.14995 3.09998 9.14995H8.99998C9.74998 9.14995 10.15 9.59995 10.35 9.99995H11V8.19995C11 7.89995 11.2 7.69995 11.5 7.69995C11.8 7.69995 12 7.89995 12 8.19995V10.5C11.95 10.8 11.75 11 11.45 11Z" fill="#EE220C"/>
</g>
<defs>
<clipPath id="clip0">
<rect width="12" height="12" fill="white"/>
</clipPath>
</defs>
</svg>
