<svg width="12" height="12" viewBox="0 0 12 12" fill="none" xmlns="http://www.w3.org/2000/svg">
<path d="M10.55 8.54995C10.3 8.54995 10.1 8.34995 10.1 8.09995V6.04995C10.1 5.64995 9.80005 5.34995 9.40005 5.34995H2.65005C2.25005 5.34995 1.95005 5.64995 1.95005 6.04995V8.09995C1.95005 8.34995 1.75005 8.54995 1.50005 8.54995C1.25005 8.54995 1.05005 8.34995 1.05005 8.09995V6.04995C1.05005 5.14995 1.75005 4.44995 2.65005 4.44995H9.35005C10.25 4.44995 10.95 5.14995 10.95 6.04995V8.09995C11 8.34995 10.8 8.54995 10.55 8.54995Z" fill="#EE220C"/>
<path d="M9.5001 5.35C9.2501 5.35 9.0501 5.15 9.0501 4.9V2.7C9.0501 2.2 8.8001 1.9 8.5501 1.9H3.5001C3.2501 1.9 3.0001 2.25 3.0001 2.7V4.9C3.0001 5.15 2.8001 5.35 2.5501 5.35C2.3001 5.35 2.1001 5.15 2.1001 4.9V2.7C2.1001 1.75 2.7501 1 3.5001 1H8.5001C9.2501 1 9.9001 1.75 9.9001 2.7V4.9C9.9501 5.15 9.7501 5.35 9.5001 5.35Z" fill="#EE220C"/>
<path d="M7.6999 5.14995C7.4499 5.14995 7.2499 4.94995 7.2499 4.69995V3.54995C7.2499 3.44995 7.2499 3.39995 7.1999 3.34995H4.8499C4.8499 3.39995 4.7999 3.44995 4.7999 3.54995V4.69995C4.7999 4.94995 4.5999 5.14995 4.3499 5.14995C4.0999 5.14995 3.8999 4.94995 3.8999 4.69995V3.54995C3.8999 2.89995 4.1999 2.44995 4.6499 2.44995H7.2999C7.7499 2.44995 8.0499 2.89995 8.0499 3.54995V4.69995C8.0999 4.94995 7.8999 5.14995 7.6999 5.14995Z" fill="#EE220C"/>
<path d="M10.55 8.5499H1.50005C1.25005 8.5499 1.05005 8.3499 1.05005 8.0999C1.05005 7.8499 1.25005 7.6499 1.50005 7.6499H10.55C10.8 7.6499 11 7.8499 11 8.0999C11 8.3499 10.8 8.5499 10.55 8.5499Z" fill="#EE220C"/>
<path d="M10.55 10.9999H8.80005C8.60005 10.9999 8.40005 10.8499 8.35005 10.6499C8.35005 10.5499 8.20005 10.0999 7.65005 10.0999H4.35005C3.75005 10.0999 3.65005 10.5999 3.65005 10.6499C3.65005 10.8499 3.45005 10.9999 3.20005 10.9999H1.50005C1.25005 10.9999 1.05005 10.7999 1.05005 10.5499V8.0999C1.05005 7.8499 1.25005 7.6499 1.50005 7.6499C1.75005 7.6499 1.95005 7.8499 1.95005 8.0999V10.0999H2.90005C3.10005 9.6999 3.55005 9.1999 4.35005 9.1999H7.65005C8.45005 9.1999 8.90005 9.6499 9.10005 10.0999H10.05V8.0999C10.05 7.8499 10.25 7.6499 10.5 7.6499C10.75 7.6499 10.95 7.8499 10.95 8.0999V10.5499C11 10.7999 10.8 10.9999 10.55 10.9999Z" fill="#EE220C"/>
</svg>
