<svg width="20" height="20" viewBox="0 0 20 20" fill="none" xmlns="http://www.w3.org/2000/svg">
<path d="M10.0001 1.66663C8.35191 1.66663 6.74074 2.15537 5.37033 3.07105C3.99992 3.98672 2.93182 5.28821 2.30109 6.81093C1.67036 8.33365 1.50533 10.0092 1.82687 11.6257C2.14842 13.2422 2.94209 14.7271 4.10753 15.8925C5.27297 17.058 6.75782 17.8516 8.37433 18.1732C9.99084 18.4947 11.6664 18.3297 13.1891 17.699C14.7118 17.0682 16.0133 16.0001 16.929 14.6297C17.8447 13.2593 18.3334 11.6481 18.3334 9.99996C18.3334 8.90561 18.1179 7.82198 17.6991 6.81093C17.2803 5.79988 16.6665 4.88122 15.8926 4.1074C15.1188 3.33358 14.2002 2.71975 13.1891 2.30096C12.1781 1.88217 11.0944 1.66663 10.0001 1.66663ZM10.0001 16.6666C8.68154 16.6666 7.39261 16.2756 6.29628 15.5431C5.19996 14.8105 4.34547 13.7694 3.84089 12.5512C3.3363 11.333 3.20428 9.99256 3.46152 8.69936C3.71875 7.40615 4.35369 6.21826 5.28604 5.28591C6.21839 4.35356 7.40628 3.71863 8.69948 3.46139C9.99269 3.20416 11.3331 3.33618 12.5513 3.84076C13.7695 4.34535 14.8107 5.19983 15.5432 6.29616C16.2758 7.39249 16.6668 8.68142 16.6668 9.99996C16.6668 11.7681 15.9644 13.4638 14.7141 14.714C13.4639 15.9642 11.7682 16.6666 10.0001 16.6666Z" fill="#999999"/>
<path d="M12.25 6.99165L9.1 11.1583L7.74166 9.39998C7.60574 9.22538 7.40602 9.11193 7.18645 9.08458C6.96687 9.05723 6.74543 9.11823 6.57083 9.25415C6.39623 9.39007 6.28277 9.58979 6.25542 9.80936C6.22807 10.0289 6.28907 10.2504 6.42499 10.425L8.45 13.0167C8.52847 13.116 8.62854 13.1961 8.74261 13.251C8.85668 13.3058 8.98175 13.334 9.10833 13.3333C9.23559 13.333 9.3611 13.3036 9.47522 13.2472C9.58933 13.1909 9.68903 13.1092 9.76666 13.0083L13.575 8.00832C13.7098 7.83151 13.7689 7.60838 13.7392 7.38803C13.7095 7.16767 13.5935 6.96814 13.4167 6.83332C13.2399 6.6985 13.0167 6.63944 12.7964 6.66913C12.576 6.69883 12.3765 6.81484 12.2417 6.99165H12.25Z" fill="#999999"/>
</svg>
