<svg width="12" height="12" viewBox="0 0 12 12" fill="none" xmlns="http://www.w3.org/2000/svg">
<path d="M5.65 10.9999H1.45C1.2 10.9999 1 10.7999 1 10.5499V6.3499C1 6.0999 1.2 5.8999 1.45 5.8999H5.65C5.9 5.8999 6.1 6.0999 6.1 6.3499V10.5499C6.1 10.7999 5.9 10.9999 5.65 10.9999ZM1.7 10.2999H5.35V6.6499H1.7V10.2999Z" fill="white"/>
<path d="M10.45 10.9999H6.25005C6.00005 10.9999 5.80005 10.7999 5.80005 10.5499V6.3499C5.80005 6.0999 6.00005 5.8999 6.25005 5.8999H10.45C10.7 5.8999 10.9 6.0999 10.9 6.3499V10.5499C10.9 10.7999 10.7 10.9999 10.45 10.9999ZM6.50005 10.2999H10.15V6.6499H6.50005V10.2999Z" fill="white"/>
<path d="M4.54995 10.05H2.54995C2.34995 10.05 2.19995 9.90005 2.19995 9.70005V8.15005C2.19995 7.95005 2.34995 7.80005 2.54995 7.80005H4.54995C4.74995 7.80005 4.89995 7.95005 4.89995 8.15005V9.70005C4.89995 9.90005 4.74995 10.05 4.54995 10.05ZM2.89995 9.35005H4.19995V8.50005H2.89995V9.35005Z" fill="white"/>
<path d="M2.2001 7.45C2.3934 7.45 2.5501 7.2933 2.5501 7.1C2.5501 6.9067 2.3934 6.75 2.2001 6.75C2.0068 6.75 1.8501 6.9067 1.8501 7.1C1.8501 7.2933 2.0068 7.45 2.2001 7.45Z" fill="white"/>
<path d="M3.1 7.45C3.2933 7.45 3.45 7.2933 3.45 7.1C3.45 6.9067 3.2933 6.75 3.1 6.75C2.9067 6.75 2.75 6.9067 2.75 7.1C2.75 7.2933 2.9067 7.45 3.1 7.45Z" fill="white"/>
<path d="M3.9999 7.45C4.1932 7.45 4.3499 7.2933 4.3499 7.1C4.3499 6.9067 4.1932 6.75 3.9999 6.75C3.8066 6.75 3.6499 6.9067 3.6499 7.1C3.6499 7.2933 3.8066 7.45 3.9999 7.45Z" fill="white"/>
<path d="M4.9501 7.45C5.1434 7.45 5.3001 7.2933 5.3001 7.1C5.3001 6.9067 5.1434 6.75 4.9501 6.75C4.7568 6.75 4.6001 6.9067 4.6001 7.1C4.6001 7.2933 4.7568 7.45 4.9501 7.45Z" fill="white"/>
<path d="M4.30002 6.19995H1.90002C1.75002 6.19995 1.65002 6.09995 1.65002 5.94995V4.94995C1.65002 4.79995 1.75002 4.69995 1.90002 4.69995H4.30002C4.45002 4.69995 4.55002 4.79995 4.55002 4.94995V5.94995C4.55002 6.09995 4.45002 6.19995 4.30002 6.19995ZM2.15002 5.64995H4.00002V5.19995H2.15002V5.64995Z" fill="white"/>
<path d="M5.35001 2.6999H2.05001C1.95001 2.6999 1.85001 2.5999 1.80001 2.4999C1.75001 2.3999 1.80001 2.2499 1.90001 2.1999L2.55001 1.7499V1.3999C2.55001 1.2499 2.65001 1.1499 2.80001 1.1499H4.45001C4.60001 1.1499 4.70001 1.2499 4.70001 1.3999V1.7499L5.50001 2.1999C5.60001 2.2499 5.65001 2.3999 5.65001 2.4999C5.60001 2.5999 5.50001 2.6999 5.35001 2.6999ZM2.95001 2.1499H4.30001C4.25001 2.0999 4.20001 1.9999 4.20001 1.9499V1.6999H3.10001V1.8999C3.10001 1.9999 3.05001 2.0999 2.95001 2.1499Z" fill="white"/>
<path d="M10.55 8.25005H6.15005C5.95005 8.25005 5.80005 8.10005 5.80005 7.90005C5.80005 7.70005 5.95005 7.55005 6.15005 7.55005H10.55C10.75 7.55005 10.9 7.70005 10.9 7.90005C10.9 8.10005 10.7 8.25005 10.55 8.25005Z" fill="white"/>
<path d="M8.90002 7.24997H7.85002C7.75002 7.24997 7.65002 7.14998 7.65002 7.04998C7.65002 6.94998 7.75002 6.84998 7.85002 6.84998H8.90002C9.00002 6.84998 9.10003 6.94998 9.10003 7.04998C9.10003 7.19998 9.00002 7.24997 8.90002 7.24997Z" fill="white"/>
<path d="M7.39995 9.8499C7.29995 9.8499 7.19995 9.7499 7.19995 9.6499V8.8499C7.19995 8.7499 7.29995 8.6499 7.39995 8.6499C7.49995 8.6499 7.59995 8.7499 7.59995 8.8499V9.6499C7.54995 9.7999 7.49995 9.8499 7.39995 9.8499Z" fill="white"/>
<path d="M9.3001 9.8499C9.2001 9.8499 9.1001 9.7499 9.1001 9.6499V8.8499C9.1001 8.7499 9.2001 8.6499 9.3001 8.6499C9.4001 8.6499 9.5001 8.7499 9.5001 8.8499V9.6499C9.5001 9.7999 9.4001 9.8499 9.3001 9.8499Z" fill="white"/>
<path d="M8.3499 10.55C8.2499 10.55 8.1499 10.45 8.1499 10.35V8.25005C8.1499 8.15005 8.2499 8.05005 8.3499 8.05005C8.4499 8.05005 8.5499 8.15005 8.5499 8.25005V10.35C8.4999 10.5 8.4499 10.55 8.3499 10.55Z" fill="white"/>
<path d="M10.2 6.19995C10.05 6.19995 9.94999 6.04995 9.94999 5.89995V4.09995C9.94999 3.99995 9.94999 3.74995 9.84999 3.64995C9.79999 3.59995 9.69999 3.54995 9.59999 3.54995C9.39999 3.54995 9.34999 3.74995 9.29999 3.84995C9.24999 3.99995 9.14999 4.14995 8.99999 4.09995C8.84999 4.04995 8.74999 3.89995 8.79999 3.74995C8.84999 3.44995 9.04999 2.94995 9.59999 2.94995C9.94999 2.94995 10.15 3.09995 10.25 3.24995C10.55 3.59995 10.5 4.09995 10.5 4.14995V5.89995C10.45 6.04995 10.35 6.19995 10.2 6.19995Z" fill="white"/>
<path d="M4.80005 5.5H4.30005C4.15005 5.5 4.05005 5.4 4.05005 5.25C4.05005 5.1 4.15005 5 4.30005 5H4.80005C4.95005 5 5.05005 5.1 5.05005 5.25C5.05005 5.4 4.90005 5.5 4.80005 5.5Z" fill="white"/>
<path d="M1.8999 5.5H1.3999C1.2499 5.5 1.1499 5.4 1.1499 5.25C1.1499 5.1 1.2499 5 1.3999 5H1.8999C2.0499 5 2.1499 5.1 2.1499 5.25C2.1499 5.4 2.0499 5.5 1.8999 5.5Z" fill="white"/>
</svg>
