<svg width="21" height="20" viewBox="0 0 21 20" fill="none" xmlns="http://www.w3.org/2000/svg">
<path d="M15.6665 17.5H10.6665C10.0035 17.5 9.36758 17.2366 8.89874 16.7678C8.4299 16.2989 8.1665 15.663 8.1665 15V10C8.1665 9.33696 8.4299 8.70107 8.89874 8.23223C9.36758 7.76339 10.0035 7.5 10.6665 7.5H15.6665C16.3295 7.5 16.9654 7.76339 17.4343 8.23223C17.9031 8.70107 18.1665 9.33696 18.1665 10V15C18.1665 15.663 17.9031 16.2989 17.4343 16.7678C16.9654 17.2366 16.3295 17.5 15.6665 17.5ZM10.6665 9.16667C10.4455 9.16667 10.2335 9.25446 10.0772 9.41074C9.92097 9.56702 9.83317 9.77899 9.83317 10V15C9.83317 15.221 9.92097 15.433 10.0772 15.5893C10.2335 15.7455 10.4455 15.8333 10.6665 15.8333H15.6665C15.8875 15.8333 16.0995 15.7455 16.2558 15.5893C16.412 15.433 16.4998 15.221 16.4998 15V10C16.4998 9.77899 16.412 9.56702 16.2558 9.41074C16.0995 9.25446 15.8875 9.16667 15.6665 9.16667H10.6665Z" fill="#333333" fill-opacity="0.75"/>
<path d="M8.77484 12.5H5.3915C4.80207 12.4978 4.23741 12.2627 3.82062 11.8459C3.40382 11.4291 3.1687 10.8644 3.1665 10.275V4.725C3.1687 4.13557 3.40382 3.57091 3.82062 3.15411C4.23741 2.73732 4.80207 2.5022 5.3915 2.5H10.9415C11.5309 2.5022 12.0956 2.73732 12.5124 3.15411C12.9292 3.57091 13.1643 4.13557 13.1665 4.725V7.83333H11.4998V4.725C11.4998 4.57692 11.441 4.43491 11.3363 4.3302C11.2316 4.22549 11.0896 4.16667 10.9415 4.16667H5.3915C5.24342 4.16667 5.10141 4.22549 4.9967 4.3302C4.89199 4.43491 4.83317 4.57692 4.83317 4.725V10.275C4.83317 10.4231 4.89199 10.5651 4.9967 10.6698C5.10141 10.7745 5.24342 10.8333 5.3915 10.8333H8.77484V12.5Z" fill="#333333" fill-opacity="0.75"/>
</svg>
