<svg width="16" height="16" viewBox="0 0 16 16" fill="none" xmlns="http://www.w3.org/2000/svg">
<path d="M12.52 7.58002L9.33329 3.58002C9.27828 3.51154 9.21027 3.4546 9.13318 3.41249C9.05609 3.37037 8.97143 3.34391 8.88408 3.33461C8.79673 3.32532 8.7084 3.33338 8.62417 3.35834C8.53995 3.38329 8.46148 3.42465 8.39329 3.48002C8.3248 3.53504 8.26787 3.60305 8.22575 3.68014C8.18363 3.75723 8.15717 3.84188 8.14788 3.92923C8.13858 4.01659 8.14665 4.10491 8.1716 4.18914C8.19656 4.27337 8.23791 4.35183 8.29329 4.42002L11.14 8.00002L8.15329 11.58C8.09715 11.6474 8.05486 11.7252 8.02883 11.8089C8.0028 11.8926 7.99354 11.9807 8.00159 12.068C8.00965 12.1553 8.03484 12.2402 8.07574 12.3178C8.11665 12.3953 8.17245 12.4641 8.23995 12.52C8.36081 12.617 8.51168 12.6689 8.66662 12.6667C8.76456 12.6669 8.86134 12.6454 8.95006 12.6039C9.03878 12.5625 9.11728 12.5019 9.17996 12.4267L12.5133 8.42669C12.6123 8.30818 12.6671 8.15897 12.6683 8.00455C12.6695 7.85013 12.6171 7.70008 12.52 7.58002Z" fill="white" fill-opacity="0.75"/>
<path d="M4.66653 3.57999C4.55514 3.43766 4.39177 3.34541 4.21236 3.32353C4.03295 3.30165 3.8522 3.35193 3.70987 3.46333C3.56754 3.57472 3.47528 3.73809 3.45341 3.9175C3.43153 4.09691 3.48181 4.27766 3.5932 4.41999L6.47319 7.99999L3.48654 11.5733C3.4304 11.6407 3.38811 11.7185 3.36208 11.8022C3.33605 11.8859 3.3268 11.974 3.33485 12.0613C3.3429 12.1486 3.36809 12.2335 3.409 12.3111C3.4499 12.3886 3.5057 12.4574 3.5732 12.5133C3.69314 12.6127 3.8441 12.667 3.99987 12.6667C4.09781 12.6668 4.19458 12.6454 4.2833 12.6039C4.37202 12.5624 4.45052 12.5019 4.5132 12.4267L7.84651 8.42666C7.94457 8.30737 7.99817 8.15774 7.99817 8.00333C7.99817 7.84891 7.94457 7.69928 7.84651 7.57999L4.66653 3.57999Z" fill="white" fill-opacity="0.75"/>
</svg>
