<svg width="32" height="32" viewBox="0 0 32 32" fill="none" xmlns="http://www.w3.org/2000/svg">
<path d="M0 0H22C27.5228 0 32 4.47715 32 10V22C32 27.5228 27.5228 32 22 32H0V0Z" fill="#20B7AA"/>
<path d="M19.52 15.58L16.3333 11.58C16.2783 11.5115 16.2103 11.4546 16.1332 11.4125C16.0561 11.3704 15.9714 11.3439 15.8841 11.3346C15.7967 11.3253 15.7084 11.3334 15.6242 11.3583C15.5399 11.3833 15.4615 11.4246 15.3933 11.48C15.3248 11.535 15.2679 11.603 15.2258 11.6801C15.1836 11.7572 15.1572 11.8419 15.1479 11.9292C15.1386 12.0166 15.1466 12.1049 15.1716 12.1891C15.1966 12.2734 15.2379 12.3518 15.2933 12.42L18.14 16L15.1533 19.58C15.0972 19.6474 15.0549 19.7252 15.0288 19.8089C15.0028 19.8926 14.9935 19.9807 15.0016 20.068C15.0096 20.1553 15.0348 20.2402 15.0757 20.3178C15.1166 20.3953 15.1724 20.4641 15.24 20.52C15.3608 20.617 15.5117 20.6689 15.6666 20.6667C15.7646 20.6669 15.8613 20.6454 15.9501 20.6039C16.0388 20.5625 16.1173 20.5019 16.18 20.4267L19.5133 16.4267C19.6123 16.3082 19.6671 16.159 19.6683 16.0046C19.6695 15.8501 19.6171 15.7001 19.52 15.58Z" fill="white" fill-opacity="0.75"/>
<path d="M11.6665 11.58C11.5551 11.4377 11.3918 11.3454 11.2124 11.3235C11.033 11.3016 10.8522 11.3519 10.7099 11.4633C10.5675 11.5747 10.4753 11.7381 10.4534 11.9175C10.4315 12.0969 10.4818 12.2777 10.5932 12.42L13.4732 16L10.4865 19.5733C10.4304 19.6407 10.3881 19.7185 10.3621 19.8022C10.3361 19.8859 10.3268 19.974 10.3348 20.0613C10.3429 20.1486 10.3681 20.2335 10.409 20.3111C10.4499 20.3886 10.5057 20.4574 10.5732 20.5133C10.6931 20.6127 10.8441 20.667 10.9999 20.6667C11.0978 20.6668 11.1946 20.6454 11.2833 20.6039C11.372 20.5624 11.4505 20.5019 11.5132 20.4267L14.8465 16.4267C14.9446 16.3074 14.9982 16.1577 14.9982 16.0033C14.9982 15.8489 14.9446 15.6993 14.8465 15.58L11.6665 11.58Z" fill="white" fill-opacity="0.75"/>
</svg>
