<svg width="24" height="24" viewBox="0 0 24 24" fill="none" xmlns="http://www.w3.org/2000/svg">
<path d="M18 3H6C5.20435 3 4.44129 3.31607 3.87868 3.87868C3.31607 4.44129 3 5.20435 3 6V18C3 18.7956 3.31607 19.5587 3.87868 20.1213C4.44129 20.6839 5.20435 21 6 21H18C18.7956 21 19.5587 20.6839 20.1213 20.1213C20.6839 19.5587 21 18.7956 21 18V6C21 5.20435 20.6839 4.44129 20.1213 3.87868C19.5587 3.31607 18.7956 3 18 3ZM19 18C19 18.2652 18.8946 18.5196 18.7071 18.7071C18.5196 18.8946 18.2652 19 18 19H6C5.73478 19 5.48043 18.8946 5.29289 18.7071C5.10536 18.5196 5 18.2652 5 18V11H19V18ZM5 9V6C5 5.73478 5.10536 5.48043 5.29289 5.29289C5.48043 5.10536 5.73478 5 6 5H18C18.2652 5 18.5196 5.10536 18.7071 5.29289C18.8946 5.48043 19 5.73478 19 6V9H5Z" fill="#333333" fill-opacity="0.5"/>
<path d="M8 8.03003C8.55228 8.03003 9 7.58231 9 7.03003C9 6.47774 8.55228 6.03003 8 6.03003C7.44772 6.03003 7 6.47774 7 7.03003C7 7.58231 7.44772 8.03003 8 8.03003Z" fill="#333333" fill-opacity="0.5"/>
<path d="M12 8.03003C12.5523 8.03003 13 7.58231 13 7.03003C13 6.47774 12.5523 6.03003 12 6.03003C11.4477 6.03003 11 6.47774 11 7.03003C11 7.58231 11.4477 8.03003 12 8.03003Z" fill="#333333" fill-opacity="0.5"/>
</svg>
