<svg width="12" height="12" viewBox="0 0 12 12" fill="none" xmlns="http://www.w3.org/2000/svg">
<path d="M4.04998 6.75C3.79998 6.75 3.59998 6.55 3.59998 6.3V5C3.59998 4.85 3.69998 4.7 3.84998 4.6L5.24998 3.95C5.44998 3.85 5.69998 3.95 5.84998 4.15C5.94998 4.35 5.84998 4.6 5.64998 4.75L4.49998 5.25V6.3C4.49998 6.55 4.29998 6.75 4.04998 6.75Z" fill="white"/>
<path d="M6.05 4.85C5.35 4.85 4.75 4.3 4.75 3.55C4.75 3.2 4.9 2.85 5.15 2.6C5.25 2.55 5.35 2.5 5.45 2.5H6.6C6.7 2.5 6.8 2.55 6.9 2.6C7.15 2.85 7.3 3.2 7.3 3.55C7.35 4.3 6.75 4.85 6.05 4.85ZM5.7 3.4C5.65 3.45 5.65 3.5 5.65 3.6C5.65 3.85 5.85 4 6.05 4C6.3 4 6.5 3.8 6.5 3.6C6.5 3.55 6.5 3.45 6.45 3.4H5.7Z" fill="white"/>
<path d="M5.34995 3.39995C5.19995 3.39995 4.99995 3.29995 4.94995 3.14995L4.64995 2.34995C4.54995 2.14995 4.64995 1.89995 4.84995 1.79995L5.84995 1.29995C5.94995 1.24995 6.09995 1.24995 6.19995 1.29995L7.24995 1.74995C7.39995 1.79995 7.44995 1.89995 7.49995 1.99995C7.54995 2.09995 7.54995 2.24995 7.49995 2.34995L7.14995 3.14995C7.04995 3.34995 6.79995 3.44995 6.54995 3.34995C6.34995 3.24995 6.24995 2.99995 6.34995 2.74995L6.49995 2.34995L6.04995 2.14995L5.54995 2.39995L5.69995 2.74995C5.79995 2.94995 5.69995 3.19995 5.44995 3.29995C5.44995 3.34995 5.39995 3.39995 5.34995 3.39995Z" fill="white"/>
<path d="M8.09997 6.74995C7.84997 6.74995 7.64997 6.54995 7.64997 6.29995V5.24995L6.49997 4.69995C6.29997 4.59995 6.19997 4.34995 6.29997 4.09995C6.39997 3.89995 6.64997 3.79995 6.89997 3.89995L8.29997 4.54995C8.44997 4.59995 8.54997 4.74995 8.54997 4.94995V6.29995C8.54997 6.54995 8.34997 6.74995 8.09997 6.74995Z" fill="white"/>
<path d="M10.4 11.05H1.54998C1.29998 11.05 1.09998 10.85 1.09998 10.6V7.45C1.09998 7.2 1.29998 7 1.54998 7H10.4C10.65 7 10.85 7.2 10.85 7.45V10.6C10.85 10.85 10.65 11.05 10.4 11.05ZM1.99998 10.15H9.99997V7.85H1.99998V10.15Z" fill="white"/>
<path d="M9.05 9.94998C8.8 9.94998 8.6 9.74998 8.6 9.49998V8.94998H3.6V9.49998C3.6 9.74998 3.4 9.94998 3.15 9.94998C2.9 9.94998 2.75 9.74998 2.75 9.49998V8.54998C2.75 8.29998 2.95 8.09998 3.2 8.09998H9.05C9.3 8.09998 9.5 8.29998 9.5 8.54998V9.49998C9.5 9.74998 9.3 9.94998 9.05 9.94998Z" fill="white"/>
</svg>
