<svg width="16" height="16" viewBox="0 0 16 16" fill="none" xmlns="http://www.w3.org/2000/svg">
<path d="M14.44 6.91325C14.4624 6.87387 14.4781 6.83108 14.4866 6.78658L14.9866 4.11992C15.0185 3.94311 14.9787 3.76089 14.8762 3.61337C14.7737 3.46584 14.6168 3.36508 14.44 3.33325C14.2632 3.30143 14.0809 3.34114 13.9334 3.44366C13.7859 3.54618 13.6851 3.70311 13.6533 3.87992L13.4066 5.21325C12.8517 4.19986 12.0224 3.36339 11.0138 2.79977C10.0052 2.23616 8.85824 1.96821 7.70434 2.02667C6.55044 2.08513 5.43639 2.46763 4.48993 3.1303C3.54348 3.79296 2.80296 4.70897 2.3533 5.77325C2.28734 5.93683 2.2889 6.11988 2.35762 6.28232C2.42634 6.44476 2.55664 6.57334 2.71997 6.63992C2.80134 6.67361 2.88858 6.69084 2.97665 6.69062C3.06472 6.69041 3.15187 6.67274 3.23308 6.63865C3.31428 6.60455 3.38792 6.55471 3.44975 6.49199C3.51158 6.42928 3.56037 6.35493 3.5933 6.27325C3.95233 5.39112 4.56981 4.63823 5.36462 4.11352C6.15943 3.5888 7.09439 3.3168 8.04664 3.33325C8.88883 3.32932 9.71711 3.54798 10.4476 3.96709C11.1781 4.3862 11.785 4.99088 12.2066 5.71992L11.1066 5.53992C11.0191 5.52591 10.9296 5.52928 10.8434 5.54984C10.7572 5.57041 10.6758 5.60775 10.604 5.65976C10.5322 5.71176 10.4713 5.77739 10.4249 5.85291C10.3784 5.92844 10.3473 6.01237 10.3333 6.09992C10.3193 6.18747 10.3227 6.27692 10.3432 6.36316C10.3638 6.4494 10.4011 6.53075 10.4531 6.60256C10.5051 6.67437 10.5708 6.73524 10.6463 6.78168C10.7218 6.82813 10.8058 6.85924 10.8933 6.87325L13.7266 7.34658H13.8333C13.9107 7.34752 13.9876 7.33395 14.06 7.30658C14.0844 7.29731 14.107 7.28377 14.1266 7.26658C14.1744 7.24881 14.2194 7.2241 14.26 7.19325L14.3133 7.12658C14.3479 7.09421 14.3791 7.05848 14.4066 7.01992C14.4229 6.98616 14.4341 6.95023 14.44 6.91325Z" fill="#20B7AA"/>
<path d="M13.2533 9.38013C13.1715 9.34662 13.0839 9.32971 12.9955 9.33038C12.9071 9.33104 12.8198 9.34928 12.7385 9.38402C12.6572 9.41876 12.5837 9.46931 12.5221 9.53274C12.4606 9.59616 12.4122 9.67119 12.38 9.75346C12.0184 10.6263 11.4033 11.3706 10.6141 11.89C9.82487 12.4094 8.89796 12.68 7.95328 12.6668C7.11109 12.6707 6.28281 12.4521 5.55229 12.033C4.82178 11.6138 4.21496 11.0092 3.79328 10.2801L4.89328 10.4601H4.99995C5.17676 10.4743 5.35195 10.4176 5.48698 10.3026C5.622 10.1876 5.70581 10.0236 5.71995 9.84679C5.7341 9.66998 5.67742 9.4948 5.5624 9.35977C5.44738 9.22474 5.28343 9.14094 5.10662 9.12679L2.27328 8.66679C2.20056 8.65339 2.126 8.65339 2.05328 8.66679H1.99995C1.9245 8.68686 1.85256 8.71834 1.78662 8.76013C1.74167 8.79485 1.70134 8.83518 1.66662 8.88013L1.60662 8.94679C1.58601 8.98698 1.57034 9.02951 1.55995 9.07346C1.53659 9.10753 1.52069 9.14615 1.51328 9.18679L1.01328 11.8535C0.991871 11.9421 0.988856 12.0341 1.00442 12.1239C1.01999 12.2137 1.05381 12.2994 1.1038 12.3756C1.15378 12.4519 1.21887 12.517 1.29503 12.5671C1.3712 12.6172 1.45682 12.6511 1.54662 12.6668H1.66662C1.82448 12.6694 1.97813 12.6158 2.10021 12.5157C2.22229 12.4156 2.30489 12.2754 2.33328 12.1201L2.57995 10.7868C3.13429 11.8004 3.96309 12.6373 4.97129 13.2015C5.97949 13.7656 7.12628 14.0342 8.28014 13.9765C9.43401 13.9187 10.5482 13.5369 11.4951 12.8749C12.4419 12.2129 13.1829 11.2974 13.6333 10.2335C13.6944 10.0698 13.6888 9.8887 13.6177 9.72911C13.5467 9.56953 13.4158 9.44421 13.2533 9.38013Z" fill="#20B7AA"/>
</svg>
