<svg width="12" height="12" viewBox="0 0 12 12" fill="none" xmlns="http://www.w3.org/2000/svg">
<path d="M6 10C6.27614 10 6.5 9.77614 6.5 9.5C6.5 9.22386 6.27614 9 6 9C5.72386 9 5.5 9.22386 5.5 9.5C5.5 9.77614 5.72386 10 6 10Z" fill="#EE220C"/>
<path d="M6.00004 7C5.3529 6.99998 4.73098 7.25091 4.26504 7.7C4.16956 7.79216 4.1146 7.91848 4.11226 8.05116C4.10992 8.18384 4.16038 8.31202 4.25254 8.4075C4.3447 8.50298 4.47102 8.55793 4.6037 8.56028C4.73638 8.56262 4.86456 8.51216 4.96004 8.42C5.24399 8.16 5.61503 8.01578 6.00004 8.01578C6.38505 8.01578 6.75609 8.16 7.04004 8.42C7.13552 8.51216 7.2637 8.56262 7.39638 8.56028C7.52906 8.55793 7.65538 8.50298 7.74754 8.4075C7.8397 8.31202 7.89016 8.18384 7.88782 8.05116C7.88547 7.91848 7.83052 7.79216 7.73504 7.7C7.2691 7.25091 6.64717 6.99998 6.00004 7Z" fill="#EE220C"/>
<path d="M5.99999 4.50003C5.39609 4.50043 4.79846 4.62237 4.24268 4.8586C3.6869 5.09483 3.18436 5.4405 2.76499 5.87503C2.71935 5.92329 2.68367 5.98007 2.65998 6.04212C2.63629 6.10417 2.62505 6.17028 2.62691 6.23667C2.62876 6.30307 2.64368 6.36845 2.6708 6.42908C2.69793 6.4897 2.73673 6.5444 2.78499 6.59003C2.88246 6.6822 3.01254 6.73186 3.14663 6.72811C3.21302 6.72626 3.2784 6.71134 3.33903 6.68422C3.39966 6.65709 3.45435 6.61829 3.49999 6.57003C3.82648 6.23129 4.21792 5.96186 4.6509 5.77783C5.08388 5.59379 5.54952 5.49894 6.01999 5.49894C6.49046 5.49894 6.9561 5.59379 7.38908 5.77783C7.82206 5.96186 8.21349 6.23129 8.53999 6.57003C8.5863 6.61728 8.64152 6.65486 8.70246 6.68061C8.76339 6.70636 8.82884 6.71976 8.89499 6.72003C8.9927 6.71966 9.08816 6.69067 9.16957 6.63664C9.25099 6.5826 9.31478 6.5059 9.35308 6.41601C9.39138 6.32612 9.4025 6.22697 9.38506 6.13083C9.36763 6.03468 9.32241 5.94576 9.25499 5.87503C8.83328 5.43807 8.32749 5.09099 7.76809 4.85468C7.20869 4.61837 6.60725 4.49774 5.99999 4.50003Z" fill="#EE220C"/>
<path d="M10.8599 3.96503C9.55516 2.70632 7.81291 2.00293 5.99995 2.00293C4.18699 2.00293 2.44473 2.70632 1.13995 3.96503C1.05557 4.05886 1.00978 4.18112 1.01178 4.3073C1.01378 4.43347 1.06341 4.55422 1.15072 4.64533C1.23804 4.73644 1.35657 4.79116 1.48254 4.79852C1.60852 4.80589 1.73262 4.76535 1.82995 4.68503C2.94875 3.60359 4.44392 2.99909 5.99995 2.99909C7.55598 2.99909 9.05115 3.60359 10.1699 4.68503C10.2626 4.77437 10.3862 4.82452 10.5149 4.82503C10.5823 4.82478 10.6489 4.81091 10.7108 4.78428C10.7726 4.75764 10.8285 4.71878 10.8749 4.67003C10.9661 4.57438 11.0157 4.44654 11.0129 4.31444C11.0101 4.18234 10.9551 4.05672 10.8599 3.96503Z" fill="#EE220C"/>
</svg>
