<svg width="16" height="16" viewBox="0 0 16 16" fill="none" xmlns="http://www.w3.org/2000/svg">
<path d="M8.00005 11.3333C7.82985 11.3324 7.66198 11.2937 7.50862 11.2199C7.35526 11.1461 7.22024 11.039 7.11338 10.9066L4.30671 7.50659C4.14271 7.3019 4.0395 7.05525 4.00886 6.79476C3.97821 6.53427 4.02136 6.27041 4.13338 6.03325C4.22423 5.82714 4.37249 5.65153 4.56046 5.5274C4.74842 5.40327 4.96814 5.33587 5.19338 5.33325H10.8067C11.0319 5.33587 11.2517 5.40327 11.4396 5.5274C11.6276 5.65153 11.7759 5.82714 11.8667 6.03325C11.9787 6.27041 12.0219 6.53427 11.9912 6.79476C11.9606 7.05525 11.8574 7.3019 11.6934 7.50659L8.88671 10.9066C8.77985 11.039 8.64484 11.1461 8.49147 11.2199C8.33811 11.2937 8.17024 11.3324 8.00005 11.3333ZM5.39338 6.66659L8.00005 9.87992L10.6667 6.66659H5.39338Z" fill="#333333" fill-opacity="0.75"/>
</svg>
