<svg width="24" height="24" viewBox="0 0 24 24" fill="none" xmlns="http://www.w3.org/2000/svg">
<path d="M18.7801 11.3699L14.0001 5.36994C13.9175 5.26722 13.8155 5.18181 13.6999 5.11864C13.5842 5.05546 13.4573 5.01577 13.3262 5.00183C13.1952 4.98789 13.0627 4.99998 12.9364 5.03741C12.81 5.07485 12.6923 5.13688 12.5901 5.21994C12.4873 5.30246 12.4019 5.40448 12.3387 5.52011C12.2756 5.63575 12.2359 5.76273 12.2219 5.89376C12.208 6.02479 12.2201 6.15728 12.2575 6.28362C12.295 6.40996 12.357 6.52765 12.4401 6.62994L16.7101 11.9999L12.2301 17.3699C12.1458 17.471 12.0824 17.5877 12.0434 17.7133C12.0043 17.8389 11.9904 17.9709 12.0025 18.1019C12.0146 18.2329 12.0524 18.3602 12.1137 18.4765C12.1751 18.5929 12.2588 18.696 12.3601 18.7799C12.5413 18.9254 12.7676 19.0032 13.0001 18.9999C13.147 19.0002 13.2921 18.968 13.4252 18.9058C13.5583 18.8436 13.676 18.7528 13.7701 18.6399L18.7701 12.6399C18.9185 12.4622 19.0007 12.2384 19.0025 12.0067C19.0044 11.7751 18.9257 11.55 18.7801 11.3699Z" fill="white"/>
<path d="M7.00005 5.37C6.83297 5.1565 6.58791 5.01812 6.3188 4.9853C6.04968 4.95249 5.77855 5.02792 5.56505 5.195C5.35155 5.36209 5.21317 5.60714 5.18035 5.87626C5.14753 6.14537 5.22297 6.4165 5.39005 6.63L9.71005 12L5.23005 17.36C5.14585 17.4611 5.08241 17.5777 5.04337 17.7033C5.00432 17.8289 4.99044 17.961 5.00251 18.092C5.01459 18.223 5.05239 18.3503 5.11374 18.4666C5.17509 18.583 5.25879 18.6861 5.36005 18.77C5.53996 18.9191 5.7664 19.0005 6.00005 19C6.14696 19.0002 6.29212 18.9681 6.4252 18.9059C6.55829 18.8437 6.67603 18.7529 6.77005 18.64L11.7701 12.64C11.9171 12.4611 11.9975 12.2366 11.9975 12.005C11.9975 11.7734 11.9171 11.5489 11.7701 11.37L7.00005 5.37Z" fill="white"/>
</svg>
