<svg width="16" height="16" viewBox="0 0 16 16" fill="none" xmlns="http://www.w3.org/2000/svg">
<path d="M12.6667 13.8333L11.1267 7.83325C11.6961 7.12483 12.0044 6.24211 12 5.33325C12 4.27239 11.5786 3.25497 10.8285 2.50482C10.0783 1.75468 9.06089 1.33325 8.00003 1.33325C6.93916 1.33325 5.92174 1.75468 5.1716 2.50482C4.42145 3.25497 4.00003 4.27239 4.00003 5.33325C3.9982 6.24913 4.3139 7.13732 4.89336 7.84659L3.33336 13.8333C3.30018 13.9612 3.30578 14.0961 3.34946 14.2209C3.39314 14.3457 3.47293 14.4546 3.57868 14.5339C3.68443 14.6132 3.81137 14.6593 3.94337 14.6663C4.07538 14.6733 4.20648 14.6409 4.32003 14.5733L7.87336 12.4866L11.66 14.5799C11.7623 14.6417 11.8806 14.6718 12 14.6666C12.1035 14.6699 12.2064 14.649 12.3005 14.6057C12.3945 14.5623 12.4772 14.4976 12.5419 14.4167C12.6066 14.3358 12.6515 14.241 12.6732 14.1397C12.6949 14.0385 12.6926 13.9335 12.6667 13.8333ZM8.00003 2.66659C8.52744 2.66659 9.04301 2.82298 9.48155 3.116C9.92008 3.40902 10.2619 3.82549 10.4637 4.31276C10.6655 4.80003 10.7183 5.33621 10.6155 5.85349C10.5126 6.37078 10.2586 6.84593 9.88564 7.21887C9.5127 7.59181 9.03755 7.84579 8.52027 7.94868C8.00298 8.05157 7.46681 7.99876 6.97954 7.79693C6.49227 7.5951 6.07579 7.2533 5.78277 6.81477C5.48976 6.37624 5.33336 5.86067 5.33336 5.33325C5.33336 4.62601 5.61431 3.94773 6.11441 3.44763C6.6145 2.94754 7.29278 2.66659 8.00003 2.66659ZM8.20669 11.1399C8.10535 11.0814 7.99038 11.0506 7.87336 11.0506C7.75633 11.0506 7.64137 11.0814 7.54003 11.1399L5.04003 12.6066L6.00003 8.80659C6.60043 9.15168 7.28084 9.33328 7.97336 9.33328C8.66588 9.33328 9.34628 9.15168 9.94669 8.80659L10.9667 12.6666L8.20669 11.1399Z" fill="#333333"/>
</svg>
