<svg fill="none" height="24" viewBox="0 0 24 24" width="24" xmlns="http://www.w3.org/2000/svg"><path d="m20.62 4.21997c-.1162-.09398-.2519-.16073-.3973-.19534s-.2966-.0362-.4427-.00466l-7.78 1.75-7.78-1.77c-.14838-.03351-.30244-.03273-.45047.00228s-.28612.10333-.40376.19976c-.11765.09643-.21174.21842-.27512.3567-.06339.13828-.09439.28919-.09065.44126v12.20003c-.00565.2311.06898.4571.2112.6394.14221.1824.34322.3098.5688.3606l8 1.8h.44l8-1.8c.2256-.0508.4266-.1782.5688-.3606.1422-.1823.2168-.4083.2112-.6394v-12.20003c-.0007-.1502-.0352-.29832-.101-.43336-.0658-.13503-.1611-.25351-.279-.34664zm-15.62 2.03 6 1.35v10.15003l-6-1.35zm14 10.15003-6 1.35v-10.15003l6-1.35z" fill="#333" fill-opacity=".5"/></svg>