<svg width="16" height="16" viewBox="0 0 16 16" fill="none" xmlns="http://www.w3.org/2000/svg">
<path d="M12 2H4C3.46957 2 2.96086 2.21071 2.58579 2.58579C2.21071 2.96086 2 3.46957 2 4V12C2 12.5304 2.21071 13.0391 2.58579 13.4142C2.96086 13.7893 3.46957 14 4 14H12C12.5304 14 13.0391 13.7893 13.4142 13.4142C13.7893 13.0391 14 12.5304 14 12V4C14 3.46957 13.7893 2.96086 13.4142 2.58579C13.0391 2.21071 12.5304 2 12 2ZM12.6667 12C12.6667 12.1768 12.5964 12.3464 12.4714 12.4714C12.3464 12.5964 12.1768 12.6667 12 12.6667H4C3.82319 12.6667 3.65362 12.5964 3.5286 12.4714C3.40357 12.3464 3.33333 12.1768 3.33333 12V4C3.33333 3.82319 3.40357 3.65362 3.5286 3.5286C3.65362 3.40357 3.82319 3.33333 4 3.33333H12C12.1768 3.33333 12.3464 3.40357 12.4714 3.5286C12.5964 3.65362 12.6667 3.82319 12.6667 4V12Z" fill="#20B7AA"/>
<path d="M10 7.33337H8.66671V6.00004C8.66671 5.82323 8.59647 5.65366 8.47145 5.52864C8.34642 5.40361 8.17685 5.33337 8.00004 5.33337C7.82323 5.33337 7.65366 5.40361 7.52864 5.52864C7.40361 5.65366 7.33337 5.82323 7.33337 6.00004V7.33337H6.00004C5.82323 7.33337 5.65366 7.40361 5.52864 7.52864C5.40361 7.65366 5.33337 7.82323 5.33337 8.00004C5.33337 8.17685 5.40361 8.34642 5.52864 8.47145C5.65366 8.59647 5.82323 8.66671 6.00004 8.66671H7.33337V10C7.33337 10.1769 7.40361 10.3464 7.52864 10.4714C7.65366 10.5965 7.82323 10.6667 8.00004 10.6667C8.17685 10.6667 8.34642 10.5965 8.47145 10.4714C8.59647 10.3464 8.66671 10.1769 8.66671 10V8.66671H10C10.1769 8.66671 10.3464 8.59647 10.4714 8.47145C10.5965 8.34642 10.6667 8.17685 10.6667 8.00004C10.6667 7.82323 10.5965 7.65366 10.4714 7.52864C10.3464 7.40361 10.1769 7.33337 10 7.33337Z" fill="#20B7AA"/>
</svg>
