<svg width="12" height="12" viewBox="0 0 12 12" fill="none" xmlns="http://www.w3.org/2000/svg">
<path d="M10.6 7.70005H1.4C1.2 7.70005 1 7.50005 1 7.25005C1 7.00005 1.2 6.80005 1.4 6.80005H10.6C10.85 6.80005 11 7.00005 11 7.25005C11 7.50005 10.85 7.70005 10.6 7.70005Z" fill="#EE220C"/>
<path d="M9 9.75H3.45C3.05 9.75 2.3 9.55 2 8.7C2 8.65 2 8.6 2 8.55V7.3C2 7.05 2.2 6.85 2.45 6.85C2.7 6.85 2.9 7.05 2.9 7.3V8.5C3.05 8.9 3.45 8.9 3.5 8.9H9C9.35 8.9 9.5 8.6 9.6 8.5V2.5C9.6 1.95 9.3 1.9 9.3 1.9H6.95V2.2C6.95 2.45 6.75 2.65 6.5 2.65C6.25 2.65 6.05 2.45 6.05 2.2V1.45C6.05 1.2 6.25 1 6.5 1H9.3C9.65 1 10.5 1.25 10.5 2.45V8.55C10.5 8.6 10.5 8.65 10.5 8.7C10.3 9.05 9.85 9.75 9 9.75Z" fill="#EE220C"/>
<path d="M9.25002 11C9.10002 11 9.00002 10.95 8.90002 10.85L7.90002 9.59999C7.75002 9.39999 7.80002 9.14999 7.95002 8.99999C8.15002 8.84999 8.40002 8.89999 8.55002 9.04999L9.55002 10.3C9.70002 10.5 9.65002 10.75 9.50002 10.9C9.45002 10.95 9.35002 11 9.25002 11Z" fill="#EE220C"/>
<path d="M3.20001 11C3.10001 11 3.00001 10.95 2.95001 10.9C2.75001 10.75 2.75001 10.45 2.90001 10.3L3.90001 9.04999C4.05001 8.84999 4.35001 8.84999 4.50001 8.99999C4.70001 9.14999 4.70001 9.44999 4.55001 9.59999L3.55001 10.85C3.45001 10.95 3.30001 11 3.20001 11Z" fill="#EE220C"/>
<path d="M3.20001 11C3.10001 11 3.00001 10.95 2.95001 10.9C2.75001 10.75 2.75001 10.45 2.90001 10.3L3.90001 9.04999C4.05001 8.84999 4.35001 8.84999 4.50001 8.99999C4.70001 9.14999 4.70001 9.44999 4.55001 9.59999L3.55001 10.85C3.45001 10.95 3.30001 11 3.20001 11Z" fill="#EE220C"/>
<path d="M6.55002 3.70002C6.77094 3.70002 6.95002 3.52094 6.95002 3.30002C6.95002 3.07911 6.77094 2.90002 6.55002 2.90002C6.32911 2.90002 6.15002 3.07911 6.15002 3.30002C6.15002 3.52094 6.32911 3.70002 6.55002 3.70002Z" fill="#EE220C"/>
<path d="M7.45005 4.8C7.67096 4.8 7.85005 4.62091 7.85005 4.4C7.85005 4.17909 7.67096 4 7.45005 4C7.22913 4 7.05005 4.17909 7.05005 4.4C7.05005 4.62091 7.22913 4.8 7.45005 4.8Z" fill="#EE220C"/>
<path d="M5.70005 4.8C5.92096 4.8 6.10005 4.62091 6.10005 4.4C6.10005 4.17909 5.92096 4 5.70005 4C5.47913 4 5.30005 4.17909 5.30005 4.4C5.30005 4.62091 5.47913 4.8 5.70005 4.8Z" fill="#EE220C"/>
<path d="M8.34995 5.85005C8.57087 5.85005 8.74995 5.67096 8.74995 5.45005C8.74995 5.22913 8.57087 5.05005 8.34995 5.05005C8.12904 5.05005 7.94995 5.22913 7.94995 5.45005C7.94995 5.67096 8.12904 5.85005 8.34995 5.85005Z" fill="#EE220C"/>
<path d="M6.55002 5.85005C6.77094 5.85005 6.95002 5.67096 6.95002 5.45005C6.95002 5.22913 6.77094 5.05005 6.55002 5.05005C6.32911 5.05005 6.15002 5.22913 6.15002 5.45005C6.15002 5.67096 6.32911 5.85005 6.55002 5.85005Z" fill="#EE220C"/>
<path d="M4.84995 5.85005C5.07087 5.85005 5.24995 5.67096 5.24995 5.45005C5.24995 5.22913 5.07087 5.05005 4.84995 5.05005C4.62904 5.05005 4.44995 5.22913 4.44995 5.45005C4.44995 5.67096 4.62904 5.85005 4.84995 5.85005Z" fill="#EE220C"/>
</svg>
