<svg width="32" height="32" viewBox="0 0 32 32" fill="none" xmlns="http://www.w3.org/2000/svg">
<circle cx="16" cy="16" r="16" fill="#EE220C"/>
<path d="M25 10H20V8.33004C19.9765 7.68985 19.7002 7.08509 19.2316 6.64833C18.7629 6.21156 18.1402 5.97843 17.5 6.00004H14.5C13.8598 5.97843 13.2371 6.21156 12.7684 6.64833C12.2998 7.08509 12.0235 7.68985 12 8.33004V10H7C6.73478 10 6.48043 10.1054 6.29289 10.2929C6.10536 10.4805 6 10.7348 6 11C6 11.2653 6.10536 11.5196 6.29289 11.7071C6.48043 11.8947 6.73478 12 7 12H8V23C8 23.7957 8.31607 24.5587 8.87868 25.1214C9.44129 25.684 10.2044 26 11 26H21C21.7956 26 22.5587 25.684 23.1213 25.1214C23.6839 24.5587 24 23.7957 24 23V12H25C25.2652 12 25.5196 11.8947 25.7071 11.7071C25.8946 11.5196 26 11.2653 26 11C26 10.7348 25.8946 10.4805 25.7071 10.2929C25.5196 10.1054 25.2652 10 25 10ZM14 8.33004C14 8.17004 14.21 8.00004 14.5 8.00004H17.5C17.79 8.00004 18 8.17004 18 8.33004V10H14V8.33004ZM22 23C22 23.2653 21.8946 23.5196 21.7071 23.7071C21.5196 23.8947 21.2652 24 21 24H11C10.7348 24 10.4804 23.8947 10.2929 23.7071C10.1054 23.5196 10 23.2653 10 23V12H22V23Z" fill="white"/>
<path d="M13 21C13.2652 21 13.5196 20.8946 13.7071 20.7071C13.8946 20.5196 14 20.2652 14 20V16C14 15.7348 13.8946 15.4804 13.7071 15.2929C13.5196 15.1054 13.2652 15 13 15C12.7348 15 12.4804 15.1054 12.2929 15.2929C12.1054 15.4804 12 15.7348 12 16V20C12 20.2652 12.1054 20.5196 12.2929 20.7071C12.4804 20.8946 12.7348 21 13 21Z" fill="white"/>
<path d="M19 21C19.2652 21 19.5196 20.8946 19.7071 20.7071C19.8946 20.5196 20 20.2652 20 20V16C20 15.7348 19.8946 15.4804 19.7071 15.2929C19.5196 15.1054 19.2652 15 19 15C18.7348 15 18.4804 15.1054 18.2929 15.2929C18.1054 15.4804 18 15.7348 18 16V20C18 20.2652 18.1054 20.5196 18.2929 20.7071C18.4804 20.8946 18.7348 21 19 21Z" fill="white"/>
</svg>
