<svg width="130" height="15" viewBox="0 0 130 15" fill="none" xmlns="http://www.w3.org/2000/svg">
<g clip-path="url(#clip0)">
<path d="M14.943 5.79C15.0195 5.79 15.084 5.8185 15.1365 5.8755C15.189 5.9325 15.216 6 15.216 6.0765V7.5C15.216 8.5155 15.015 9.4875 14.613 10.416C14.211 11.3445 13.6725 12.1455 12.996 12.816C12.321 13.4865 11.511 14.0175 10.5675 14.4105C9.624 14.8035 8.637 15 7.608 15C6.579 15 5.5935 14.8035 4.656 14.4105C3.717 14.0175 2.9085 13.4865 2.2275 12.816C1.548 12.1455 1.0065 11.346 0.6045 10.416C0.201 9.4875 0 8.5155 0 7.5C0 6.4845 0.201 5.5155 0.603 4.59C1.005 3.666 1.5465 2.868 2.226 2.1975C2.9055 1.527 3.7155 0.993 4.6545 0.5955C5.5935 0.1995 6.5805 0 7.6155 0C8.832 0 9.969 0.2655 11.028 0.798C12.0855 1.329 12.9645 2.055 13.665 2.9745C13.713 3.0315 13.7325 3.099 13.722 3.1755C13.713 3.252 13.6785 3.315 13.6215 3.363L10.719 5.5455C10.662 5.5935 10.5945 5.613 10.518 5.6025C10.4415 5.5935 10.3785 5.5545 10.3305 5.487C10.014 5.046 9.612 4.6995 9.123 4.446C8.634 4.1925 8.1075 4.065 7.542 4.065C6.5835 4.065 5.7675 4.401 5.0925 5.07C4.4175 5.7405 4.08 6.5505 4.08 7.4985C4.08 8.4465 4.4175 9.2565 5.0925 9.927C5.7675 10.5975 6.585 10.932 7.542 10.932C8.1645 10.932 8.742 10.776 9.273 10.4655C9.804 10.155 10.224 9.7395 10.53 9.222H7.1415C7.065 9.222 6.9975 9.1935 6.9405 9.1365C6.8835 9.0795 6.855 9.012 6.855 8.9355V6.078C6.855 6.0015 6.8835 5.934 6.9405 5.877C6.9975 5.82 7.065 5.7915 7.1415 5.7915H14.943V5.79Z" fill="white"/>
<path d="M18.2115 5.40301C19.002 4.94251 19.8615 4.71301 20.79 4.71301C21.7185 4.71301 22.5795 4.94251 23.3685 5.40301C24.159 5.86351 24.783 6.48751 25.2435 7.27801C25.704 8.06851 25.9335 8.93101 25.9335 9.86401C25.9335 10.7985 25.704 11.658 25.2435 12.4425C24.783 13.227 24.159 13.851 23.3685 14.31C22.578 14.769 21.7185 15 20.79 15C19.8615 15 19.0005 14.7705 18.2115 14.31C17.421 13.8495 16.7955 13.227 16.3365 12.4425C15.876 11.6565 15.6465 10.797 15.6465 9.86401C15.6465 8.92951 15.876 8.06851 16.3365 7.27801C16.7955 6.48751 17.421 5.86201 18.2115 5.40301ZM19.77 10.884C20.0475 11.166 20.388 11.3085 20.79 11.3085C21.192 11.3085 21.5325 11.1675 21.81 10.884C22.0875 10.602 22.227 10.2615 22.227 9.86401C22.227 9.46651 22.0875 9.12601 21.81 8.84401C21.5325 8.56201 21.192 8.41951 20.79 8.41951C20.388 8.41951 20.0475 8.56051 19.77 8.84401C19.4925 9.12601 19.353 9.46651 19.353 9.86401C19.353 10.2615 19.4925 10.6005 19.77 10.884Z" fill="white"/>
<path d="M36.0194 0.216003C36.1724 0.216003 36.2639 0.288003 36.2924 0.432003L37.9874 8.004L39.0359 0.460503C39.0449 0.393003 39.0764 0.336003 39.1289 0.288003C39.1814 0.240003 39.2459 0.216003 39.3224 0.216003H42.7844C42.8699 0.216003 42.9419 0.247503 43.0004 0.309003C43.0574 0.372003 43.0769 0.445503 43.0574 0.531003L41.1464 14.3385C41.1374 14.4045 41.1059 14.463 41.0534 14.511C41.0009 14.559 40.9409 14.583 40.8734 14.583H37.0799C37.0034 14.583 36.9404 14.559 36.8924 14.511C36.6434 14.262 36.3824 13.8615 36.1094 13.311C35.8364 12.7605 35.5904 12.1755 35.3699 11.5575C35.1494 10.9395 34.9484 10.338 34.7669 9.7545C34.5854 9.171 34.4459 8.691 34.3499 8.3175L34.2059 7.743C34.1669 7.887 34.1144 8.085 34.0484 8.34C33.9809 8.5935 33.8444 9.0555 33.6389 9.726C33.4334 10.3965 33.2294 11.0145 33.0284 11.58C32.8274 12.1455 32.5859 12.7125 32.3024 13.2825C32.0204 13.8525 31.7594 14.262 31.5194 14.511C31.4714 14.559 31.4039 14.583 31.3184 14.583H27.5399C27.4634 14.583 27.3989 14.559 27.3464 14.511C27.2939 14.463 27.2624 14.406 27.2534 14.3385L25.3439 0.531003C25.3349 0.445503 25.3589 0.370503 25.4159 0.309003C25.4729 0.247503 25.5449 0.216003 25.6319 0.216003H29.0939C29.1614 0.216003 29.2214 0.240003 29.2739 0.288003C29.3264 0.336003 29.3579 0.393003 29.3669 0.460503L30.4304 8.004L32.1254 0.432003C32.1539 0.288003 32.2454 0.216003 32.3984 0.216003H36.0194Z" fill="white"/>
<path d="M47.2261 3.64951H43.7641C43.6786 3.64951 43.6081 3.62101 43.5556 3.56401C43.5031 3.50701 43.4761 3.43951 43.4761 3.36301V0.502508C43.4761 0.417008 43.5031 0.346508 43.5556 0.294008C43.6081 0.241508 43.6771 0.214508 43.7641 0.214508H47.2261C47.3026 0.214508 47.3701 0.241508 47.4271 0.294008C47.4841 0.346508 47.5126 0.415508 47.5126 0.502508V3.36151C47.5126 3.43801 47.4841 3.50551 47.4271 3.56251C47.3701 3.62101 47.3026 3.64951 47.2261 3.64951ZM47.2261 14.583H43.7641C43.6786 14.583 43.6081 14.556 43.5556 14.5035C43.5031 14.451 43.4761 14.382 43.4761 14.295V5.21551C43.4761 5.13901 43.5031 5.07151 43.5556 5.01451C43.6081 4.95751 43.6771 4.92901 43.7641 4.92901H47.2261C47.3026 4.92901 47.3701 4.95751 47.4271 5.01451C47.4841 5.07151 47.5126 5.13901 47.5126 5.21551V14.2965C47.5126 14.382 47.4841 14.4525 47.4271 14.505C47.3701 14.5575 47.3026 14.583 47.2261 14.583Z" fill="white"/>
<path d="M56.3926 9.756C56.4406 9.7845 56.5051 9.8235 56.5861 9.8715C56.6671 9.9195 56.8081 10.056 57.0106 10.281C57.2116 10.506 57.3931 10.7715 57.5566 11.079C57.7186 11.385 57.8671 11.823 58.0021 12.393C58.1356 12.963 58.2076 13.5975 58.2181 14.2965C58.2271 14.373 58.2031 14.4405 58.1461 14.4975C58.0891 14.5545 58.0216 14.583 57.9451 14.583H54.3241C54.2476 14.583 54.1831 14.556 54.1306 14.5035C54.0781 14.451 54.0511 14.3865 54.0511 14.31C54.0421 13.7835 53.9626 13.326 53.8141 12.9375C53.6656 12.549 53.5006 12.267 53.3191 12.09C53.1376 11.913 52.9306 11.772 52.7011 11.6655C52.4716 11.5605 52.3066 11.5005 52.2061 11.4855C52.1056 11.4705 52.0261 11.4645 51.9691 11.4645V14.295C51.9691 14.3805 51.9406 14.451 51.8836 14.5035C51.8266 14.556 51.7591 14.583 51.6826 14.583H48.2206C48.1351 14.583 48.0646 14.556 48.0121 14.5035C47.9596 14.451 47.9326 14.382 47.9326 14.295V0.288C47.9326 0.2025 47.9596 0.132 48.0121 0.0795C48.0646 0.027 48.1336 0 48.2206 0H51.6826C51.7591 0 51.8266 0.0285 51.8836 0.0855C51.9406 0.1425 51.9691 0.21 51.9691 0.2865V8.0445C52.0261 8.0445 52.1011 8.0325 52.1911 8.0085C52.2826 7.9845 52.4446 7.908 52.6801 7.779C52.9141 7.65 53.1226 7.485 53.3056 7.284C53.4871 7.083 53.6551 6.7815 53.8081 6.3795C53.9611 5.9775 54.0421 5.517 54.0526 4.9995C54.0526 4.923 54.0796 4.8555 54.1321 4.7985C54.1846 4.7415 54.2491 4.713 54.3256 4.713H57.9466C58.0231 4.713 58.0876 4.7415 58.1401 4.7985C58.1926 4.8555 58.2196 4.923 58.2196 4.9995C58.2106 5.508 58.1686 5.988 58.0981 6.444C58.0261 6.8985 57.9376 7.2825 57.8326 7.593C57.7276 7.905 57.6106 8.19 57.4801 8.448C57.3511 8.706 57.2236 8.9145 57.0991 9.0735C56.9746 9.231 56.8591 9.363 56.7541 9.468C56.6491 9.573 56.5621 9.6495 56.4961 9.6975L56.3926 9.756Z" fill="white"/>
<path d="M67.7431 7.54351C68.0881 8.27101 68.2741 9.06151 68.3041 9.91351C68.3131 10.0665 68.2411 10.158 68.0881 10.1865L62.6431 11.394C62.8831 11.5185 63.1411 11.5815 63.4186 11.5815C63.8881 11.5815 64.2991 11.433 64.6546 11.136C64.7221 11.079 64.7956 11.055 64.8766 11.064C64.9576 11.073 65.0176 11.112 65.0566 11.1795L66.5506 13.3785C66.6466 13.5225 66.6316 13.647 66.5071 13.752C65.5396 14.586 64.4191 15.0015 63.1456 15.0015C62.2171 15.0015 61.3561 14.772 60.5671 14.3115C59.7766 13.851 59.1541 13.227 58.6996 12.4365C58.2451 11.646 58.0171 10.782 58.0171 9.84301V9.82801C58.0171 9.69451 58.0261 9.55501 58.0456 9.41101C58.1506 8.08951 58.6951 6.97501 59.6761 6.07051C60.6571 5.16601 61.8151 4.71301 63.1456 4.71301C64.1416 4.71301 65.0491 4.96501 65.8681 5.46751C66.6871 5.97001 67.3126 6.66151 67.7431 7.54351ZM63.7921 7.77301C63.4186 7.77301 63.0691 7.85701 62.7436 8.02501C62.4181 8.19301 62.1826 8.41051 62.0401 8.67901C62.0206 8.70751 62.0206 8.73451 62.0401 8.75851C62.0596 8.78251 62.0836 8.79001 62.1121 8.77951L64.7701 8.20501C64.7986 8.19601 64.8151 8.17651 64.8211 8.14801C64.8256 8.11951 64.8181 8.09551 64.8001 8.07601C64.5106 7.87351 64.1746 7.77301 63.7921 7.77301Z" fill="white"/>
<path d="M77.8575 14.583H74.5681C74.4916 14.5725 74.4271 14.5425 74.3746 14.49C74.3221 14.4375 74.2951 14.373 74.2951 14.2965V8.59199C74.2951 8.47649 74.2666 8.36699 74.2096 8.26199C74.0851 8.03249 73.8976 7.91699 73.6486 7.91699C73.4671 7.91699 73.3126 7.98149 73.1896 8.11049C73.0651 8.23949 73.0021 8.39999 73.0021 8.59199V14.2965C73.0021 14.373 72.9736 14.4405 72.9166 14.4975C72.8596 14.5545 72.7921 14.583 72.7156 14.583H68.9941C68.9086 14.583 68.8381 14.556 68.7856 14.5035C68.7331 14.451 68.7061 14.382 68.7061 14.295V4.99949C68.7061 4.92299 68.7316 4.85549 68.7856 4.79849C68.8381 4.74149 68.9071 4.71299 68.9941 4.71299H71.7676C72.2851 4.57949 72.8356 4.51199 73.4206 4.51199C74.1766 4.51199 74.8576 4.62149 75.4606 4.84199C76.0636 5.06249 76.56 5.36399 76.947 5.74649C77.3355 6.12899 77.631 6.57749 77.838 7.09049C78.0435 7.60349 78.147 8.15549 78.147 8.74949V14.295C78.147 14.3805 78.1185 14.451 78.0615 14.5035C78.0015 14.5575 77.9355 14.583 77.8575 14.583Z" fill="white"/>
<path d="M78.6046 9.29551C78.7381 8.08801 79.2481 7.0515 80.1346 6.1845C81.0211 5.3175 82.0711 4.8315 83.2876 4.7265C83.9581 4.6785 84.6136 4.755 85.2556 4.956V0.489003C85.2556 0.412503 85.2841 0.348003 85.3411 0.295503C85.3981 0.243003 85.4656 0.216003 85.5421 0.216003H89.0041C89.0806 0.216003 89.1481 0.243003 89.2051 0.295503C89.2621 0.348003 89.2906 0.412503 89.2906 0.489003V14.5125C89.2906 14.589 89.2621 14.6535 89.2051 14.706C89.1481 14.7585 89.0806 14.7855 89.0041 14.7855H85.2541V14.7705C84.7561 14.9235 84.2431 15 83.7166 15C82.9696 15 82.2631 14.847 81.5971 14.5395C80.9311 14.2335 80.3656 13.824 79.9021 13.311C79.4371 12.798 79.0846 12.1905 78.8461 11.487C78.6106 10.7835 78.5281 10.053 78.6046 9.29551ZM82.7071 8.844C82.4251 9.12601 82.2826 9.46651 82.2826 9.86401C82.2826 10.2615 82.4236 10.602 82.7071 10.884C82.9891 11.166 83.3296 11.3085 83.7271 11.3085C84.1246 11.3085 84.4621 11.1675 84.7396 10.884C85.0171 10.602 85.1566 10.2615 85.1566 9.86401C85.1566 9.46651 85.0171 9.12601 84.7396 8.844C84.4621 8.56201 84.1246 8.41951 83.7271 8.41951C83.3296 8.41951 82.9891 8.5605 82.7071 8.844Z" fill="white"/>
<path d="M91.3709 14.1885C90.9734 13.791 90.7754 13.3125 90.7754 12.7515C90.7754 12.1905 90.9734 11.712 91.3709 11.3145C91.7684 10.917 92.2469 10.7175 92.8079 10.7175C93.3689 10.7175 93.8474 10.917 94.2449 11.3145C94.6424 11.712 94.8419 12.1905 94.8419 12.7515C94.8419 13.3125 94.6424 13.791 94.2449 14.1885C93.8474 14.586 93.3689 14.7855 92.8079 14.7855C92.2469 14.784 91.7684 14.586 91.3709 14.1885Z" fill="white"/>
<path d="M103.002 11.1645L104.496 13.377C104.582 13.5105 104.568 13.6305 104.453 13.7355C103.476 14.5785 102.35 15 101.076 15C100.329 15 99.6195 14.847 98.949 14.5395C98.2785 14.2335 97.7115 13.821 97.2465 13.3035C96.7815 12.786 96.4305 12.1755 96.1905 11.472C95.9505 10.7685 95.874 10.0335 95.961 9.26701C96.0945 8.08951 96.591 7.07401 97.4475 6.22051C98.304 5.36851 99.3225 4.87501 100.5 4.74001C101.238 4.66351 101.946 4.73551 102.627 4.95601C103.307 5.17651 103.916 5.51701 104.451 5.97601C104.567 6.08101 104.58 6.20551 104.495 6.34951L103.001 8.54851C102.953 8.61601 102.888 8.65351 102.807 8.66401C102.726 8.67301 102.651 8.64901 102.585 8.59201C102.231 8.29501 101.818 8.14651 101.349 8.14651C100.87 8.14651 100.465 8.31451 100.135 8.64901C99.8055 8.98501 99.6405 9.38701 99.6405 9.85651C99.6405 10.326 99.8055 10.728 100.135 11.064C100.465 11.4 100.87 11.5665 101.349 11.5665C101.818 11.5665 102.23 11.418 102.585 11.121C102.653 11.064 102.726 11.04 102.807 11.049C102.89 11.058 102.954 11.097 103.002 11.1645Z" fill="white"/>
<path d="M106.428 5.40301C107.219 4.94251 108.078 4.71301 109.007 4.71301C109.935 4.71301 110.796 4.94251 111.585 5.40301C112.376 5.86351 113 6.48751 113.46 7.27801C113.919 8.06851 114.15 8.93101 114.15 9.86401C114.15 10.7985 113.921 11.658 113.46 12.4425C113 13.227 112.376 13.851 111.585 14.31C110.795 14.7705 109.935 15 109.007 15C108.078 15 107.219 14.7705 106.428 14.31C105.638 13.8495 105.014 13.227 104.553 12.4425C104.093 11.6565 103.863 10.797 103.863 9.86401C103.863 8.92951 104.093 8.06851 104.553 7.27801C105.014 6.48751 105.638 5.86201 106.428 5.40301ZM107.988 10.884C108.266 11.166 108.606 11.3085 109.008 11.3085C109.41 11.3085 109.751 11.1675 110.028 10.884C110.306 10.602 110.445 10.2615 110.445 9.86401C110.445 9.46651 110.306 9.12601 110.028 8.84401C109.751 8.56201 109.41 8.41951 109.008 8.41951C108.606 8.41951 108.266 8.56051 107.988 8.84401C107.711 9.12601 107.571 9.46651 107.571 9.86401C107.571 10.2615 107.709 10.6005 107.988 10.884Z" fill="white"/>
<path d="M129.108 14.583H125.789C125.712 14.583 125.648 14.5545 125.595 14.4975C125.543 14.4405 125.516 14.373 125.516 14.2965V8.59199C125.516 8.47649 125.487 8.36699 125.43 8.26199C125.306 8.03249 125.118 7.91699 124.869 7.91699C124.688 7.91699 124.533 7.98149 124.41 8.11049C124.286 8.23949 124.223 8.39999 124.223 8.59199V14.2965C124.223 14.373 124.194 14.4405 124.137 14.4975C124.08 14.5545 124.013 14.583 123.936 14.583H120.33C120.254 14.583 120.189 14.5545 120.137 14.4975C120.084 14.4405 120.057 14.373 120.057 14.2965V8.59199C120.057 8.47649 120.029 8.36699 119.972 8.26199C119.847 8.03249 119.66 7.91699 119.411 7.91699C119.229 7.91699 119.075 7.98149 118.95 8.11049C118.826 8.23949 118.763 8.39999 118.763 8.59199V14.2965C118.763 14.382 118.734 14.4525 118.677 14.505C118.62 14.5575 118.553 14.5845 118.476 14.5845H114.87C114.785 14.5845 114.714 14.5575 114.662 14.505C114.609 14.4525 114.582 14.3835 114.582 14.2965V4.99949C114.582 4.92299 114.608 4.85549 114.662 4.79849C114.714 4.74149 114.783 4.71299 114.87 4.71299H117.644C118.161 4.57949 118.716 4.51199 119.31 4.51199C120.335 4.51199 121.226 4.71749 121.983 5.12999C122.739 4.71899 123.636 4.51199 124.67 4.51199C125.426 4.51199 126.107 4.62149 126.71 4.84199C127.313 5.06249 127.809 5.36399 128.196 5.74649C128.585 6.12899 128.879 6.57749 129.08 7.09049C129.281 7.60349 129.381 8.15549 129.381 8.74949V14.295C129.381 14.3805 129.354 14.451 129.302 14.5035C129.249 14.5575 129.185 14.583 129.108 14.583Z" fill="white"/>
</g>
<defs>
<clipPath id="clip0">
<rect width="129.381" height="15" fill="white"/>
</clipPath>
</defs>
</svg>
