<svg width="16" height="16" viewBox="0 0 16 16" fill="none" xmlns="http://www.w3.org/2000/svg">
<path d="M6.00004 7.33333C6.52746 7.33333 7.04303 7.17694 7.48156 6.88392C7.92009 6.5909 8.26189 6.17443 8.46372 5.68716C8.66555 5.19989 8.71836 4.66371 8.61547 4.14643C8.51257 3.62914 8.2586 3.15399 7.88566 2.78105C7.51272 2.40811 7.03756 2.15413 6.52028 2.05124C6.003 1.94835 5.46682 2.00116 4.97955 2.20299C4.49228 2.40482 4.07581 2.74662 3.78279 3.18515C3.48977 3.62368 3.33337 4.13925 3.33337 4.66667C3.33337 5.37391 3.61433 6.05219 4.11442 6.55229C4.61452 7.05238 5.2928 7.33333 6.00004 7.33333ZM6.00004 3.33333C6.26375 3.33333 6.52154 3.41153 6.7408 3.55804C6.96007 3.70455 7.13096 3.91279 7.23188 4.15642C7.3328 4.40006 7.3592 4.66815 7.30775 4.92679C7.25631 5.18543 7.12932 5.42301 6.94285 5.60948C6.75638 5.79595 6.5188 5.92294 6.26016 5.97438C6.00152 6.02583 5.73343 5.99942 5.4898 5.89851C5.24616 5.79759 5.03792 5.62669 4.89141 5.40743C4.74491 5.18816 4.66671 4.93038 4.66671 4.66667C4.66671 4.31305 4.80718 3.97391 5.05723 3.72386C5.30728 3.47381 5.64642 3.33333 6.00004 3.33333Z" fill="#333333"/>
<path d="M11.3334 8.66675C11.7289 8.66675 12.1156 8.54945 12.4445 8.32969C12.7734 8.10993 13.0298 7.79757 13.1811 7.43212C13.3325 7.06666 13.3721 6.66453 13.2949 6.27657C13.2178 5.88861 13.0273 5.53224 12.7476 5.25254C12.4679 4.97283 12.1115 4.78235 11.7236 4.70518C11.3356 4.62801 10.9335 4.66761 10.568 4.81899C10.2026 4.97037 9.8902 5.22671 9.67044 5.55561C9.45067 5.88451 9.33337 6.27119 9.33337 6.66675C9.33337 7.19718 9.54409 7.70589 9.91916 8.08096C10.2942 8.45604 10.8029 8.66675 11.3334 8.66675ZM11.3334 6.00008C11.4652 6.00008 11.5941 6.03918 11.7038 6.11244C11.8134 6.18569 11.8988 6.28981 11.9493 6.41163C11.9998 6.53344 12.013 6.66749 11.9872 6.79681C11.9615 6.92613 11.898 7.04492 11.8048 7.13815C11.7115 7.23139 11.5928 7.29488 11.4634 7.32061C11.3341 7.34633 11.2001 7.33313 11.0783 7.28267C10.9564 7.23221 10.8523 7.14676 10.7791 7.03713C10.7058 6.9275 10.6667 6.7986 10.6667 6.66675C10.6667 6.48994 10.7369 6.32037 10.862 6.19534C10.987 6.07032 11.1566 6.00008 11.3334 6.00008Z" fill="#333333"/>
<path d="M11.3334 9.33321C10.5946 9.33403 9.87701 9.58025 9.29337 10.0332C8.64038 9.38278 7.80941 8.94027 6.90526 8.76149C6.0011 8.58271 5.06425 8.67567 4.21286 9.02863C3.36146 9.3816 2.63365 9.97877 2.1212 10.7448C1.60875 11.5109 1.33462 12.4115 1.33337 13.3332C1.33337 13.51 1.40361 13.6796 1.52864 13.8046C1.65366 13.9296 1.82323 13.9999 2.00004 13.9999C2.17685 13.9999 2.34642 13.9296 2.47145 13.8046C2.59647 13.6796 2.66671 13.51 2.66671 13.3332C2.66671 12.4492 3.0179 11.6013 3.64302 10.9762C4.26814 10.3511 5.11599 9.99987 6.00004 9.99987C6.8841 9.99987 7.73194 10.3511 8.35706 10.9762C8.98218 11.6013 9.33337 12.4492 9.33337 13.3332C9.33337 13.51 9.40361 13.6796 9.52864 13.8046C9.65366 13.9296 9.82323 13.9999 10 13.9999C10.1769 13.9999 10.3464 13.9296 10.4714 13.8046C10.5965 13.6796 10.6667 13.51 10.6667 13.3332C10.6683 12.5522 10.471 11.7836 10.0934 11.0999C10.388 10.8671 10.7422 10.7219 11.1155 10.681C11.4887 10.6401 11.866 10.7051 12.204 10.8685C12.5421 11.032 12.8273 11.2873 13.027 11.6053C13.2267 11.9233 13.3329 12.291 13.3334 12.6665C13.3334 12.8434 13.4036 13.0129 13.5286 13.1379C13.6537 13.263 13.8232 13.3332 14 13.3332C14.1769 13.3332 14.3464 13.263 14.4714 13.1379C14.5965 13.0129 14.6667 12.8434 14.6667 12.6665C14.6667 11.7825 14.3155 10.9346 13.6904 10.3095C13.0653 9.6844 12.2174 9.33321 11.3334 9.33321Z" fill="#333333"/>
</svg>
