<svg width="12" height="12" viewBox="0 0 12 12" fill="none" xmlns="http://www.w3.org/2000/svg">
<path d="M9.30005 10.95H2.70005C2.45005 10.95 2.30005 10.75 2.30005 10.55C2.30005 10.3 2.50005 10.15 2.70005 10.15H9.30005C9.55005 10.15 9.70005 10.35 9.70005 10.55C9.75005 10.75 9.55005 10.95 9.30005 10.95Z" fill="#EE220C"/>
<path d="M11.4 9.15005H0.599951C0.349951 9.15005 0.199951 8.95005 0.199951 8.75005V2.70005C0.199951 2.45005 0.399951 2.30005 0.599951 2.30005H11.4C11.65 2.30005 11.8 2.50005 11.8 2.70005V8.75005C11.8 9.00005 11.65 9.15005 11.4 9.15005ZM0.999951 8.35005H11V3.15005H0.999951V8.35005Z" fill="#EE220C"/>
</svg>
