<svg width="136" height="90" viewBox="0 0 136 90" fill="none" xmlns="http://www.w3.org/2000/svg">
<g opacity="0.75">
<path d="M80 6H56C54.4087 6 52.8826 6.63214 51.7574 7.75736C50.6321 8.88258 50 10.4087 50 12V36C50 37.5913 50.6321 39.1174 51.7574 40.2426C52.8826 41.3679 54.4087 42 56 42H80C81.5913 42 83.1174 41.3679 84.2426 40.2426C85.3679 39.1174 86 37.5913 86 36V12C86 10.4087 85.3679 8.88258 84.2426 7.75736C83.1174 6.63214 81.5913 6 80 6ZM56 10H80C80.5304 10 81.0391 10.2107 81.4142 10.5858C81.7893 10.9609 82 11.4696 82 12V28.72L75.6 23.26C74.6084 22.4441 73.3641 21.998 72.08 21.998C70.7959 21.998 69.5516 22.4441 68.56 23.26L54 35.4V12C54 11.4696 54.2107 10.9609 54.5858 10.5858C54.9609 10.2107 55.4696 10 56 10ZM80 38H57.12L71.12 26.32C71.3889 26.1203 71.715 26.0125 72.05 26.0125C72.385 26.0125 72.7111 26.1203 72.98 26.32L82 34V36C82 36.5304 81.7893 37.0391 81.4142 37.4142C81.0391 37.7893 80.5304 38 80 38Z" fill="black"/>
<path d="M60 20C61.6569 20 63 18.6569 63 17C63 15.3431 61.6569 14 60 14C58.3431 14 57 15.3431 57 17C57 18.6569 58.3431 20 60 20Z" fill="black"/>
<path d="M7.83691 67L6.59277 63.8213H2.58691L1.35645 67H0.180664L4.13184 56.9648H5.10938L9.04004 67H7.83691ZM6.23047 62.7754L5.06836 59.6787C4.91797 59.2868 4.76302 58.806 4.60352 58.2363C4.50326 58.6738 4.3597 59.1546 4.17285 59.6787L2.99707 62.7754H6.23047ZM13.6611 59.3711C13.9938 59.3711 14.2923 59.3984 14.5566 59.4531L14.3994 60.5059C14.0895 60.4375 13.8161 60.4033 13.5791 60.4033C12.973 60.4033 12.4535 60.6494 12.0205 61.1416C11.5921 61.6338 11.3779 62.2467 11.3779 62.9805V67H10.2432V59.5078H11.1797L11.3096 60.8955H11.3643C11.6423 60.4079 11.9772 60.0319 12.3691 59.7676C12.7611 59.5033 13.1917 59.3711 13.6611 59.3711ZM19.376 59.3711C19.7087 59.3711 20.0072 59.3984 20.2715 59.4531L20.1143 60.5059C19.8044 60.4375 19.5309 60.4033 19.2939 60.4033C18.6878 60.4033 18.1683 60.6494 17.7354 61.1416C17.307 61.6338 17.0928 62.2467 17.0928 62.9805V67H15.958V59.5078H16.8945L17.0244 60.8955H17.0791C17.3571 60.4079 17.6921 60.0319 18.084 59.7676C18.4759 59.5033 18.9066 59.3711 19.376 59.3711ZM26.2803 67L26.0547 65.9336H26C25.6263 66.403 25.2526 66.722 24.8789 66.8906C24.5098 67.0547 24.0472 67.1367 23.4912 67.1367C22.7484 67.1367 22.165 66.9453 21.7412 66.5625C21.3219 66.1797 21.1123 65.6351 21.1123 64.9287C21.1123 63.4157 22.3223 62.6227 24.7422 62.5498L26.0137 62.5088V62.0439C26.0137 61.4561 25.8861 61.0231 25.6309 60.7451C25.3802 60.4626 24.9769 60.3213 24.4209 60.3213C23.7965 60.3213 23.0902 60.5127 22.3018 60.8955L21.9531 60.0273C22.3223 59.8268 22.7256 59.6696 23.1631 59.5557C23.6051 59.4417 24.0472 59.3848 24.4893 59.3848C25.3825 59.3848 26.0433 59.583 26.4717 59.9795C26.9046 60.376 27.1211 61.0117 27.1211 61.8867V67H26.2803ZM23.7168 66.2002C24.4232 66.2002 24.9769 66.0065 25.3779 65.6191C25.7835 65.2318 25.9863 64.6895 25.9863 63.9922V63.3154L24.8516 63.3633C23.9492 63.3952 23.2975 63.5365 22.8965 63.7871C22.5 64.0332 22.3018 64.4183 22.3018 64.9424C22.3018 65.3525 22.4248 65.6647 22.6709 65.8789C22.9215 66.0931 23.2702 66.2002 23.7168 66.2002ZM34.2988 64.9561C34.2988 65.6533 34.0391 66.1911 33.5195 66.5693C33 66.9476 32.2708 67.1367 31.332 67.1367C30.3385 67.1367 29.5638 66.9795 29.0078 66.665V65.6123C29.3678 65.7946 29.7529 65.9382 30.1631 66.043C30.5778 66.1478 30.9766 66.2002 31.3594 66.2002C31.9518 66.2002 32.4076 66.1068 32.7266 65.9199C33.0456 65.7285 33.2051 65.4391 33.2051 65.0518C33.2051 64.7601 33.0775 64.5117 32.8223 64.3066C32.5716 64.097 32.0794 63.8509 31.3457 63.5684C30.6484 63.3086 30.1517 63.083 29.8555 62.8916C29.5638 62.6956 29.3451 62.4746 29.1992 62.2285C29.0579 61.9824 28.9873 61.6885 28.9873 61.3467C28.9873 60.736 29.2357 60.2552 29.7324 59.9043C30.2292 59.5488 30.9105 59.3711 31.7764 59.3711C32.583 59.3711 33.3714 59.5352 34.1416 59.8633L33.7383 60.7861C32.9863 60.4762 32.305 60.3213 31.6943 60.3213C31.1566 60.3213 30.751 60.4056 30.4775 60.5742C30.2041 60.7428 30.0674 60.9753 30.0674 61.2715C30.0674 61.472 30.1175 61.6429 30.2178 61.7842C30.3226 61.9255 30.4889 62.0599 30.7168 62.1875C30.9447 62.3151 31.3822 62.4997 32.0293 62.7412C32.918 63.0648 33.5173 63.3906 33.8271 63.7188C34.1416 64.0469 34.2988 64.4593 34.2988 64.9561ZM38.5713 66.2002C38.7718 66.2002 38.9655 66.1865 39.1523 66.1592C39.3392 66.1273 39.4873 66.0954 39.5967 66.0635V66.9316C39.4736 66.9909 39.2913 67.0387 39.0498 67.0752C38.8128 67.1162 38.5986 67.1367 38.4072 67.1367C36.958 67.1367 36.2334 66.3734 36.2334 64.8467V60.3896H35.1602V59.8428L36.2334 59.3711L36.7119 57.7715H37.3682V59.5078H39.542V60.3896H37.3682V64.7988C37.3682 65.25 37.4753 65.5964 37.6895 65.8379C37.9036 66.0794 38.1976 66.2002 38.5713 66.2002ZM44.5186 59.3711C44.8512 59.3711 45.1497 59.3984 45.4141 59.4531L45.2568 60.5059C44.9469 60.4375 44.6735 60.4033 44.4365 60.4033C43.8304 60.4033 43.3109 60.6494 42.8779 61.1416C42.4495 61.6338 42.2354 62.2467 42.2354 62.9805V67H41.1006V59.5078H42.0371L42.167 60.8955H42.2217C42.4997 60.4079 42.8346 60.0319 43.2266 59.7676C43.6185 59.5033 44.0492 59.3711 44.5186 59.3711ZM51.4229 67L51.1973 65.9336H51.1426C50.7689 66.403 50.3952 66.722 50.0215 66.8906C49.6523 67.0547 49.1898 67.1367 48.6338 67.1367C47.891 67.1367 47.3076 66.9453 46.8838 66.5625C46.4645 66.1797 46.2549 65.6351 46.2549 64.9287C46.2549 63.4157 47.4648 62.6227 49.8848 62.5498L51.1562 62.5088V62.0439C51.1562 61.4561 51.0286 61.0231 50.7734 60.7451C50.5228 60.4626 50.1195 60.3213 49.5635 60.3213C48.9391 60.3213 48.2327 60.5127 47.4443 60.8955L47.0957 60.0273C47.4648 59.8268 47.8682 59.6696 48.3057 59.5557C48.7477 59.4417 49.1898 59.3848 49.6318 59.3848C50.5251 59.3848 51.1859 59.583 51.6143 59.9795C52.0472 60.376 52.2637 61.0117 52.2637 61.8867V67H51.4229ZM48.8594 66.2002C49.5658 66.2002 50.1195 66.0065 50.5205 65.6191C50.9261 65.2318 51.1289 64.6895 51.1289 63.9922V63.3154L49.9941 63.3633C49.0918 63.3952 48.4401 63.5365 48.0391 63.7871C47.6426 64.0332 47.4443 64.4183 47.4443 64.9424C47.4443 65.3525 47.5674 65.6647 47.8135 65.8789C48.0641 66.0931 48.4128 66.2002 48.8594 66.2002ZM59.3799 67H58.2451V59.5078H59.3799V67ZM58.1494 57.4775C58.1494 57.2178 58.2132 57.0286 58.3408 56.9102C58.4684 56.7871 58.6279 56.7256 58.8193 56.7256C59.0016 56.7256 59.1589 56.7871 59.291 56.9102C59.4232 57.0332 59.4893 57.2223 59.4893 57.4775C59.4893 57.7327 59.4232 57.9242 59.291 58.0518C59.1589 58.1748 59.0016 58.2363 58.8193 58.2363C58.6279 58.2363 58.4684 58.1748 58.3408 58.0518C58.2132 57.9242 58.1494 57.7327 58.1494 57.4775ZM71.3359 67V62.126C71.3359 61.529 71.2083 61.0824 70.9531 60.7861C70.6979 60.4854 70.3014 60.335 69.7637 60.335C69.0573 60.335 68.5355 60.5378 68.1982 60.9434C67.861 61.349 67.6924 61.9733 67.6924 62.8164V67H66.5576V62.126C66.5576 61.529 66.43 61.0824 66.1748 60.7861C65.9196 60.4854 65.5208 60.335 64.9785 60.335C64.2676 60.335 63.7458 60.5492 63.4131 60.9775C63.085 61.4014 62.9209 62.0986 62.9209 63.0693V67H61.7861V59.5078H62.709L62.8936 60.5332H62.9482C63.1624 60.1686 63.4632 59.8838 63.8506 59.6787C64.2425 59.4736 64.68 59.3711 65.1631 59.3711C66.3343 59.3711 67.0999 59.7949 67.46 60.6426H67.5146C67.738 60.2507 68.0615 59.9408 68.4854 59.7129C68.9092 59.485 69.3923 59.3711 69.9346 59.3711C70.7822 59.3711 71.4157 59.5898 71.835 60.0273C72.2588 60.4603 72.4707 61.1553 72.4707 62.1123V67H71.3359ZM79.4229 67L79.1973 65.9336H79.1426C78.7689 66.403 78.3952 66.722 78.0215 66.8906C77.6523 67.0547 77.1898 67.1367 76.6338 67.1367C75.891 67.1367 75.3076 66.9453 74.8838 66.5625C74.4645 66.1797 74.2549 65.6351 74.2549 64.9287C74.2549 63.4157 75.4648 62.6227 77.8848 62.5498L79.1562 62.5088V62.0439C79.1562 61.4561 79.0286 61.0231 78.7734 60.7451C78.5228 60.4626 78.1195 60.3213 77.5635 60.3213C76.9391 60.3213 76.2327 60.5127 75.4443 60.8955L75.0957 60.0273C75.4648 59.8268 75.8682 59.6696 76.3057 59.5557C76.7477 59.4417 77.1898 59.3848 77.6318 59.3848C78.5251 59.3848 79.1859 59.583 79.6143 59.9795C80.0472 60.376 80.2637 61.0117 80.2637 61.8867V67H79.4229ZM76.8594 66.2002C77.5658 66.2002 78.1195 66.0065 78.5205 65.6191C78.9261 65.2318 79.1289 64.6895 79.1289 63.9922V63.3154L77.9941 63.3633C77.0918 63.3952 76.4401 63.5365 76.0391 63.7871C75.6426 64.0332 75.4443 64.4183 75.4443 64.9424C75.4443 65.3525 75.5674 65.6647 75.8135 65.8789C76.0641 66.0931 76.4128 66.2002 76.8594 66.2002ZM88.7402 59.5078V60.2256L87.3525 60.3896C87.4801 60.5492 87.5941 60.7588 87.6943 61.0186C87.7946 61.2738 87.8447 61.5632 87.8447 61.8867C87.8447 62.6204 87.5941 63.2061 87.0928 63.6436C86.5915 64.0811 85.9033 64.2998 85.0283 64.2998C84.805 64.2998 84.5954 64.2816 84.3994 64.2451C83.9163 64.5003 83.6748 64.8216 83.6748 65.209C83.6748 65.4141 83.7591 65.5667 83.9277 65.667C84.0964 65.7627 84.3857 65.8105 84.7959 65.8105H86.1221C86.9333 65.8105 87.5553 65.9814 87.9883 66.3232C88.4258 66.665 88.6445 67.1618 88.6445 67.8135C88.6445 68.6429 88.3118 69.2741 87.6465 69.707C86.9811 70.1445 86.0104 70.3633 84.7344 70.3633C83.7546 70.3633 82.998 70.181 82.4648 69.8164C81.9362 69.4518 81.6719 68.9368 81.6719 68.2715C81.6719 67.8158 81.8177 67.4215 82.1094 67.0889C82.401 66.7562 82.8112 66.5306 83.3398 66.4121C83.1484 66.3255 82.9867 66.1911 82.8545 66.0088C82.7269 65.8265 82.6631 65.6146 82.6631 65.373C82.6631 65.0996 82.736 64.8604 82.8818 64.6553C83.0277 64.4502 83.2578 64.252 83.5723 64.0605C83.1849 63.901 82.8682 63.6299 82.6221 63.2471C82.3805 62.8643 82.2598 62.4268 82.2598 61.9346C82.2598 61.1143 82.5059 60.4831 82.998 60.041C83.4902 59.5944 84.1875 59.3711 85.0898 59.3711C85.4818 59.3711 85.835 59.4167 86.1494 59.5078H88.7402ZM82.7656 68.2578C82.7656 68.6634 82.9365 68.971 83.2783 69.1807C83.6201 69.3903 84.11 69.4951 84.748 69.4951C85.7005 69.4951 86.4046 69.3516 86.8604 69.0645C87.3206 68.7819 87.5508 68.3968 87.5508 67.9092C87.5508 67.5036 87.4255 67.221 87.1748 67.0615C86.9242 66.9066 86.4525 66.8291 85.7598 66.8291H84.3994C83.8844 66.8291 83.4834 66.9521 83.1963 67.1982C82.9092 67.4443 82.7656 67.7975 82.7656 68.2578ZM83.3809 61.9072C83.3809 62.4313 83.529 62.8278 83.8252 63.0967C84.1214 63.3656 84.5339 63.5 85.0625 63.5C86.1699 63.5 86.7236 62.9622 86.7236 61.8867C86.7236 60.7611 86.1631 60.1982 85.042 60.1982C84.5088 60.1982 84.0986 60.3418 83.8115 60.6289C83.5244 60.916 83.3809 61.3421 83.3809 61.9072ZM93.4434 67.1367C92.3359 67.1367 91.4609 66.7995 90.8184 66.125C90.1803 65.4505 89.8613 64.514 89.8613 63.3154C89.8613 62.1077 90.1576 61.1484 90.75 60.4375C91.347 59.7266 92.1468 59.3711 93.1494 59.3711C94.0882 59.3711 94.8311 59.681 95.3779 60.3008C95.9248 60.916 96.1982 61.7295 96.1982 62.7412V63.459H91.0371C91.0599 64.3385 91.2809 65.0062 91.7002 65.4619C92.124 65.9176 92.7188 66.1455 93.4844 66.1455C94.291 66.1455 95.0885 65.9769 95.877 65.6396V66.6514C95.4759 66.8245 95.0954 66.9476 94.7354 67.0205C94.3799 67.098 93.9492 67.1367 93.4434 67.1367ZM93.1357 60.3213C92.5342 60.3213 92.0534 60.5173 91.6934 60.9092C91.3379 61.3011 91.1283 61.8434 91.0645 62.5361H94.9814C94.9814 61.8206 94.8219 61.2738 94.5029 60.8955C94.1839 60.5127 93.7282 60.3213 93.1357 60.3213ZM103.267 67V62.1533C103.267 61.5426 103.128 61.0869 102.85 60.7861C102.572 60.4854 102.136 60.335 101.544 60.335C100.76 60.335 100.186 60.5469 99.8213 60.9707C99.4567 61.3945 99.2744 62.0941 99.2744 63.0693V67H98.1396V59.5078H99.0625L99.2471 60.5332H99.3018C99.5342 60.1641 99.86 59.8792 100.279 59.6787C100.699 59.4736 101.166 59.3711 101.681 59.3711C102.583 59.3711 103.262 59.5898 103.718 60.0273C104.174 60.4603 104.401 61.1553 104.401 62.1123V67H103.267ZM109.904 67.1367C108.797 67.1367 107.922 66.7995 107.279 66.125C106.641 65.4505 106.322 64.514 106.322 63.3154C106.322 62.1077 106.618 61.1484 107.211 60.4375C107.808 59.7266 108.608 59.3711 109.61 59.3711C110.549 59.3711 111.292 59.681 111.839 60.3008C112.386 60.916 112.659 61.7295 112.659 62.7412V63.459H107.498C107.521 64.3385 107.742 65.0062 108.161 65.4619C108.585 65.9176 109.18 66.1455 109.945 66.1455C110.752 66.1455 111.549 65.9769 112.338 65.6396V66.6514C111.937 66.8245 111.556 66.9476 111.196 67.0205C110.841 67.098 110.41 67.1367 109.904 67.1367ZM109.597 60.3213C108.995 60.3213 108.514 60.5173 108.154 60.9092C107.799 61.3011 107.589 61.8434 107.525 62.5361H111.442C111.442 61.8206 111.283 61.2738 110.964 60.8955C110.645 60.5127 110.189 60.3213 109.597 60.3213ZM119.434 64.9561C119.434 65.6533 119.174 66.1911 118.654 66.5693C118.135 66.9476 117.406 67.1367 116.467 67.1367C115.473 67.1367 114.699 66.9795 114.143 66.665V65.6123C114.503 65.7946 114.888 65.9382 115.298 66.043C115.713 66.1478 116.111 66.2002 116.494 66.2002C117.087 66.2002 117.542 66.1068 117.861 65.9199C118.18 65.7285 118.34 65.4391 118.34 65.0518C118.34 64.7601 118.212 64.5117 117.957 64.3066C117.706 64.097 117.214 63.8509 116.48 63.5684C115.783 63.3086 115.286 63.083 114.99 62.8916C114.699 62.6956 114.48 62.4746 114.334 62.2285C114.193 61.9824 114.122 61.6885 114.122 61.3467C114.122 60.736 114.37 60.2552 114.867 59.9043C115.364 59.5488 116.045 59.3711 116.911 59.3711C117.718 59.3711 118.506 59.5352 119.276 59.8633L118.873 60.7861C118.121 60.4762 117.44 60.3213 116.829 60.3213C116.291 60.3213 115.886 60.4056 115.612 60.5742C115.339 60.7428 115.202 60.9753 115.202 61.2715C115.202 61.472 115.252 61.6429 115.353 61.7842C115.457 61.9255 115.624 62.0599 115.852 62.1875C116.079 62.3151 116.517 62.4997 117.164 62.7412C118.053 63.0648 118.652 63.3906 118.962 63.7188C119.276 64.0469 119.434 64.4593 119.434 64.9561ZM131.39 63.2471C131.39 64.4684 131.082 65.4232 130.467 66.1113C129.852 66.7949 129.002 67.1367 127.917 67.1367C127.247 67.1367 126.652 66.9795 126.133 66.665C125.613 66.3506 125.212 65.8994 124.93 65.3115C124.647 64.7236 124.506 64.0355 124.506 63.2471C124.506 62.0257 124.811 61.0755 125.422 60.3965C126.033 59.7129 126.88 59.3711 127.965 59.3711C129.013 59.3711 129.845 59.7197 130.46 60.417C131.08 61.1143 131.39 62.0576 131.39 63.2471ZM125.682 63.2471C125.682 64.2041 125.873 64.9333 126.256 65.4346C126.639 65.9359 127.201 66.1865 127.944 66.1865C128.687 66.1865 129.25 65.9382 129.633 65.4414C130.02 64.9401 130.214 64.2087 130.214 63.2471C130.214 62.2946 130.02 61.5723 129.633 61.0801C129.25 60.5833 128.683 60.335 127.931 60.335C127.188 60.335 126.627 60.5788 126.249 61.0664C125.871 61.554 125.682 62.2809 125.682 63.2471ZM27.9551 86.1367C27.4674 86.1367 27.0208 86.0479 26.6152 85.8701C26.2142 85.6878 25.877 85.4098 25.6035 85.0361H25.5215C25.5762 85.4736 25.6035 85.8883 25.6035 86.2803V89.3633H24.4688V78.5078H25.3916L25.5488 79.5332H25.6035C25.8952 79.123 26.2347 78.8268 26.6221 78.6445C27.0094 78.4622 27.4538 78.3711 27.9551 78.3711C28.9486 78.3711 29.7142 78.7106 30.252 79.3896C30.7943 80.0687 31.0654 81.0212 31.0654 82.2471C31.0654 83.4775 30.7897 84.4346 30.2383 85.1182C29.6914 85.7972 28.9303 86.1367 27.9551 86.1367ZM27.791 79.335C27.0254 79.335 26.4717 79.5469 26.1299 79.9707C25.7881 80.3945 25.6126 81.069 25.6035 81.9941V82.2471C25.6035 83.2998 25.779 84.054 26.1299 84.5098C26.4808 84.9609 27.0436 85.1865 27.8184 85.1865C28.4655 85.1865 28.9714 84.9245 29.3359 84.4004C29.7051 83.8763 29.8896 83.154 29.8896 82.2334C29.8896 81.2992 29.7051 80.5837 29.3359 80.0869C28.9714 79.5856 28.4564 79.335 27.791 79.335ZM36.4727 78.3711C36.8053 78.3711 37.1038 78.3984 37.3682 78.4531L37.2109 79.5059C36.901 79.4375 36.6276 79.4033 36.3906 79.4033C35.7845 79.4033 35.265 79.6494 34.832 80.1416C34.4036 80.6338 34.1895 81.2467 34.1895 81.9805V86H33.0547V78.5078H33.9912L34.1211 79.8955H34.1758C34.4538 79.4079 34.7887 79.0319 35.1807 78.7676C35.5726 78.5033 36.0033 78.3711 36.4727 78.3711ZM41.9346 86.1367C40.8271 86.1367 39.9521 85.7995 39.3096 85.125C38.6715 84.4505 38.3525 83.514 38.3525 82.3154C38.3525 81.1077 38.6488 80.1484 39.2412 79.4375C39.8382 78.7266 40.638 78.3711 41.6406 78.3711C42.5794 78.3711 43.3223 78.681 43.8691 79.3008C44.416 79.916 44.6895 80.7295 44.6895 81.7412V82.459H39.5283C39.5511 83.3385 39.7721 84.0062 40.1914 84.4619C40.6152 84.9176 41.21 85.1455 41.9756 85.1455C42.7822 85.1455 43.5798 84.9769 44.3682 84.6396V85.6514C43.9671 85.8245 43.5866 85.9476 43.2266 86.0205C42.8711 86.098 42.4404 86.1367 41.9346 86.1367ZM41.627 79.3213C41.0254 79.3213 40.5446 79.5173 40.1846 79.9092C39.8291 80.3011 39.6195 80.8434 39.5557 81.5361H43.4727C43.4727 80.8206 43.3132 80.2738 42.9941 79.8955C42.6751 79.5127 42.2194 79.3213 41.627 79.3213ZM51.4639 83.9561C51.4639 84.6533 51.2041 85.1911 50.6846 85.5693C50.165 85.9476 49.4359 86.1367 48.4971 86.1367C47.5036 86.1367 46.7288 85.9795 46.1729 85.665V84.6123C46.5329 84.7946 46.918 84.9382 47.3281 85.043C47.7428 85.1478 48.1416 85.2002 48.5244 85.2002C49.1169 85.2002 49.5726 85.1068 49.8916 84.9199C50.2106 84.7285 50.3701 84.4391 50.3701 84.0518C50.3701 83.7601 50.2425 83.5117 49.9873 83.3066C49.7367 83.097 49.2445 82.8509 48.5107 82.5684C47.8135 82.3086 47.3167 82.083 47.0205 81.8916C46.7288 81.6956 46.5101 81.4746 46.3643 81.2285C46.223 80.9824 46.1523 80.6885 46.1523 80.3467C46.1523 79.736 46.4007 79.2552 46.8975 78.9043C47.3942 78.5488 48.0755 78.3711 48.9414 78.3711C49.748 78.3711 50.5365 78.5352 51.3066 78.8633L50.9033 79.7861C50.1514 79.4762 49.4701 79.3213 48.8594 79.3213C48.3216 79.3213 47.916 79.4056 47.6426 79.5742C47.3691 79.7428 47.2324 79.9753 47.2324 80.2715C47.2324 80.472 47.2826 80.6429 47.3828 80.7842C47.4876 80.9255 47.654 81.0599 47.8818 81.1875C48.1097 81.3151 48.5472 81.4997 49.1943 81.7412C50.083 82.0648 50.6823 82.3906 50.9922 82.7188C51.3066 83.0469 51.4639 83.4593 51.4639 83.9561ZM54.4512 86H53.3164V78.5078H54.4512V86ZM53.2207 76.4775C53.2207 76.2178 53.2845 76.0286 53.4121 75.9102C53.5397 75.7871 53.6992 75.7256 53.8906 75.7256C54.0729 75.7256 54.2301 75.7871 54.3623 75.9102C54.4945 76.0332 54.5605 76.2223 54.5605 76.4775C54.5605 76.7327 54.4945 76.9242 54.3623 77.0518C54.2301 77.1748 54.0729 77.2363 53.8906 77.2363C53.6992 77.2363 53.5397 77.1748 53.4121 77.0518C53.2845 76.9242 53.2207 76.7327 53.2207 76.4775ZM63.3242 82.2471C63.3242 83.4684 63.0166 84.4232 62.4014 85.1113C61.7861 85.7949 60.9362 86.1367 59.8516 86.1367C59.1816 86.1367 58.5869 85.9795 58.0674 85.665C57.5479 85.3506 57.1468 84.8994 56.8643 84.3115C56.5817 83.7236 56.4404 83.0355 56.4404 82.2471C56.4404 81.0257 56.7458 80.0755 57.3564 79.3965C57.9671 78.7129 58.8148 78.3711 59.8994 78.3711C60.9476 78.3711 61.7793 78.7197 62.3945 79.417C63.0143 80.1143 63.3242 81.0576 63.3242 82.2471ZM57.6162 82.2471C57.6162 83.2041 57.8076 83.9333 58.1904 84.4346C58.5732 84.9359 59.1361 85.1865 59.8789 85.1865C60.6217 85.1865 61.1846 84.9382 61.5674 84.4414C61.9548 83.9401 62.1484 83.2087 62.1484 82.2471C62.1484 81.2946 61.9548 80.5723 61.5674 80.0801C61.1846 79.5833 60.6172 79.335 59.8652 79.335C59.1224 79.335 58.5618 79.5788 58.1836 80.0664C57.8053 80.554 57.6162 81.2809 57.6162 82.2471ZM70.4473 86V81.1533C70.4473 80.5426 70.3083 80.0869 70.0303 79.7861C69.7523 79.4854 69.3171 79.335 68.7246 79.335C67.9408 79.335 67.3665 79.5469 67.002 79.9707C66.6374 80.3945 66.4551 81.0941 66.4551 82.0693V86H65.3203V78.5078H66.2432L66.4277 79.5332H66.4824C66.7148 79.1641 67.0407 78.8792 67.46 78.6787C67.8792 78.4736 68.3464 78.3711 68.8613 78.3711C69.7637 78.3711 70.4427 78.5898 70.8984 79.0273C71.3542 79.4603 71.582 80.1553 71.582 81.1123V86H70.4473ZM77.085 86.1367C75.9775 86.1367 75.1025 85.7995 74.46 85.125C73.8219 84.4505 73.5029 83.514 73.5029 82.3154C73.5029 81.1077 73.7992 80.1484 74.3916 79.4375C74.9886 78.7266 75.7884 78.3711 76.791 78.3711C77.7298 78.3711 78.4727 78.681 79.0195 79.3008C79.5664 79.916 79.8398 80.7295 79.8398 81.7412V82.459H74.6787C74.7015 83.3385 74.9225 84.0062 75.3418 84.4619C75.7656 84.9176 76.3604 85.1455 77.126 85.1455C77.9326 85.1455 78.7301 84.9769 79.5186 84.6396V85.6514C79.1175 85.8245 78.737 85.9476 78.377 86.0205C78.0215 86.098 77.5908 86.1367 77.085 86.1367ZM76.7773 79.3213C76.1758 79.3213 75.695 79.5173 75.335 79.9092C74.9795 80.3011 74.7699 80.8434 74.7061 81.5361H78.623C78.623 80.8206 78.4635 80.2738 78.1445 79.8955C77.8255 79.5127 77.3698 79.3213 76.7773 79.3213ZM90.0254 86L89.7998 84.9336H89.7451C89.3714 85.403 88.9977 85.722 88.624 85.8906C88.2549 86.0547 87.7923 86.1367 87.2363 86.1367C86.4935 86.1367 85.9102 85.9453 85.4863 85.5625C85.0671 85.1797 84.8574 84.6351 84.8574 83.9287C84.8574 82.4157 86.0674 81.6227 88.4873 81.5498L89.7588 81.5088V81.0439C89.7588 80.4561 89.6312 80.0231 89.376 79.7451C89.1253 79.4626 88.722 79.3213 88.166 79.3213C87.5417 79.3213 86.8353 79.5127 86.0469 79.8955L85.6982 79.0273C86.0674 78.8268 86.4707 78.6696 86.9082 78.5557C87.3503 78.4417 87.7923 78.3848 88.2344 78.3848C89.1276 78.3848 89.7884 78.583 90.2168 78.9795C90.6497 79.376 90.8662 80.0117 90.8662 80.8867V86H90.0254ZM87.4619 85.2002C88.1683 85.2002 88.722 85.0065 89.123 84.6191C89.5286 84.2318 89.7314 83.6895 89.7314 82.9922V82.3154L88.5967 82.3633C87.6943 82.3952 87.0426 82.5365 86.6416 82.7871C86.2451 83.0332 86.0469 83.4183 86.0469 83.9424C86.0469 84.3525 86.1699 84.6647 86.416 84.8789C86.6667 85.0931 87.0153 85.2002 87.4619 85.2002ZM96.041 85.1865C96.7975 85.1865 97.349 84.9837 97.6953 84.5781C98.0417 84.1725 98.2262 83.4889 98.249 82.5273V82.2744C98.249 81.2262 98.0713 80.472 97.7158 80.0117C97.3604 79.5514 96.7975 79.3213 96.0273 79.3213C95.362 79.3213 94.8516 79.5811 94.4961 80.1006C94.1452 80.6156 93.9697 81.3447 93.9697 82.2881C93.9697 83.2314 94.1429 83.9515 94.4893 84.4482C94.8402 84.9404 95.3574 85.1865 96.041 85.1865ZM95.8701 86.1367C94.904 86.1367 94.1497 85.7972 93.6074 85.1182C93.0651 84.4391 92.7939 83.4912 92.7939 82.2744C92.7939 81.0485 93.0674 80.0915 93.6143 79.4033C94.1611 78.7152 94.9222 78.3711 95.8975 78.3711C96.9229 78.3711 97.7113 78.7585 98.2627 79.5332H98.3242L98.4883 78.5078H99.3838V89.3633H98.249V86.1572C98.249 85.7015 98.2741 85.3141 98.3242 84.9951H98.2354C97.7113 85.7562 96.9229 86.1367 95.8701 86.1367ZM102.863 78.5078V83.3682C102.863 83.9788 103.002 84.4346 103.28 84.7354C103.558 85.0361 103.993 85.1865 104.586 85.1865C105.37 85.1865 105.942 84.9723 106.302 84.5439C106.666 84.1156 106.849 83.416 106.849 82.4453V78.5078H107.983V86H107.047L106.883 84.9951H106.821C106.589 85.3643 106.265 85.6468 105.851 85.8428C105.44 86.0387 104.971 86.1367 104.442 86.1367C103.531 86.1367 102.847 85.9202 102.392 85.4873C101.94 85.0544 101.715 84.3617 101.715 83.4092V78.5078H102.863ZM111.531 86H110.396V78.5078H111.531V86ZM110.349 77.3457C110.567 77.0632 110.802 76.7214 111.053 76.3203C111.308 75.9193 111.508 75.5706 111.654 75.2744H113.035V75.418C112.835 75.7142 112.536 76.0788 112.14 76.5117C111.743 76.9447 111.399 77.2796 111.107 77.5166H110.349V77.3457Z" fill="black"/>
</g>
</svg>
